<?xml version="1.0" encoding="UTF-8" standalone="no"?>
<svg
   xmlns:dc="http://purl.org/dc/elements/1.1/"
   xmlns:cc="http://creativecommons.org/ns#"
   xmlns:rdf="http://www.w3.org/1999/02/22-rdf-syntax-ns#"
   xmlns:svg="http://www.w3.org/2000/svg"
   xmlns="http://www.w3.org/2000/svg"
   version="1.1"
   id="svg2"
   viewBox="0 0 1440 900.00002"
   height="900"
   width="1440">
  <defs
     id="defs4" />
  <metadata
     id="metadata7">
    <rdf:RDF>
      <cc:Work
         rdf:about="">
        <dc:format>image/svg+xml</dc:format>
        <dc:type
           rdf:resource="http://purl.org/dc/dcmitype/StillImage" />
        <dc:title></dc:title>
      </cc:Work>
    </rdf:RDF>
  </metadata>
  <g
     transform="translate(0,-152.36202)"
     id="layer1">
    <path
       d="m 393.07865,365.5324 c -7.18008,0.60436 -13.69798,3.70987 -20.13349,6.7041 -7.03764,3.77222 -42.77184,23.49399 -8.6673,4.42806 1.99752,-1.11671 -3.92972,2.34645 -5.89458,3.51967 0,0 -22.19431,8.56163 -22.19431,8.56163 l 0,0 c 18.29541,-11.01387 36.81707,-21.7013 55.74533,-31.59474 6.90079,-3.12283 13.9852,-6.18773 21.66921,-6.53091 0,0 -20.52486,14.91219 -20.52486,14.91219 z"
       id="path3557"
       style="fill:#000000;fill-opacity:1;fill-rule:nonzero;stroke:none;stroke-width:1px;stroke-linecap:butt;stroke-linejoin:miter;stroke-opacity:1" />
    <path
       d="m 357.11761,380.09128 c -5.33277,-0.60734 -10.63752,1.46506 -15.64249,3.04706 -4.24196,1.51649 -8.31066,3.39202 -12.27508,5.52118 -1.3511,0.72564 -5.3563,2.99012 -4.02647,2.22618 19.76489,-11.35422 22.13223,-12.9761 12.9525,-7.08007 -14.16524,9.40252 -28.76903,18.21647 -43.96355,25.85994 -8.28528,3.86579 -16.20681,8.42177 -24.30042,12.65638 -8.01706,4.32333 -16.36642,7.95358 -24.72571,11.54863 -8.03097,3.50756 -15.63426,7.8968 -23.53511,11.65979 -4.61991,1.76529 -9.13427,3.80027 -13.88487,5.19804 -2.4837,0.5819 -5.03601,0.56003 -7.56891,0.58564 -2.26086,-0.3509 -4.17497,0.79921 -6.33377,1.24126 -1.65679,0.37556 -3.36254,0.43892 -5.05426,0.47762 -1.81836,0.13792 -1.89116,0.0801 -2.76097,-1.81396 -0.10308,-0.40291 -0.29793,-0.793 -0.30925,-1.20873 -0.009,-0.31434 1.50917,-2.87045 1.69263,-3.14834 0.51734,-0.86473 0.96685,-1.76701 1.40131,-2.67537 7.62909,-3.88746 15.04705,-8.22055 22.88727,-11.66239 0.45217,-0.1985 0.38168,0.91391 0.51159,1.39034 0.18611,0.6825 0.31508,1.38006 0.43399,2.07742 0.74552,4.37242 1.15151,8.79718 1.58478,13.20723 1.41429,16.12522 1.4347,32.32216 1.8786,48.49078 0.51296,23.1302 1.2434,46.25009 2.73777,69.33908 1.89446,24.30245 2.9061,48.64341 3.03831,73.01504 -0.1182,16.09882 -1.42051,32.21211 -4.38214,48.04179 -1.55555,7.5509 -4.31018,14.75553 -6.60859,22.08992 -1.39222,6.0511 -2.81228,12.20149 -2.97579,18.43247 0.38528,11.59773 4.30205,1.34393 -22.37098,14.39834 0,0 22.5422,-11.80946 22.5422,-11.80946 l 0,0 c -20.83581,12.05133 -22.7941,21.28239 -22.59517,8.70947 0.40267,-6.45284 1.86553,-12.78423 3.02784,-19.12884 2.08356,-7.51393 5.31402,-14.65109 7.29902,-22.20359 3.6777,-15.8194 5.49466,-32.0329 5.89624,-48.26519 0.33998,-24.39888 -0.60484,-48.76811 -2.52921,-73.0964 -1.60814,-22.96192 -2.72973,-45.95104 -3.64708,-68.95046 -0.6996,-15.95109 -0.69208,-31.96718 -2.6858,-47.83312 -0.91348,-5.9145 -0.58002,-4.34223 -1.68771,-9.57549 -0.20214,-0.95502 -0.3833,-1.91561 -0.6332,-2.85926 -0.0836,-0.31567 -0.74177,-2.1574 -0.71615,-2.17197 7.38468,-4.19923 14.90512,-8.15508 22.35768,-12.23261 -0.48572,0.97755 -1.01424,1.9332 -1.50942,2.90592 -0.13647,0.2771 -0.27293,0.5542 -0.40939,0.83129 -0.17012,0.14172 -0.40449,0.23069 -0.51037,0.42515 -0.38862,0.71374 -0.22014,2.47992 -1.28074,1.08058 -0.93051,-1.34495 -0.24487,-0.75418 0.89764,-0.9005 1.58259,-0.11969 3.1486,-0.3865 4.6788,-0.81158 2.19892,-0.63805 4.36618,-0.91026 6.66275,-0.78063 2.3828,-0.0672 4.76709,-0.30417 7.03868,-1.07395 4.47271,-1.44302 8.83743,-3.26289 13.15147,-5.11315 7.78488,-3.88131 15.47709,-7.96029 23.45242,-11.44907 8.32034,-3.59762 16.57278,-7.35385 24.55495,-11.66188 8.08649,-4.33301 16.14559,-8.71367 24.41204,-12.70078 9.60692,-4.99023 5.47358,-2.92349 -13.31477,8.02568 -1.2486,0.72764 2.49753,-1.45493 3.73525,-2.20092 2.74454,-1.65419 5.0503,-3.11515 7.73929,-4.86789 1.33004,-0.86695 2.64804,-1.75222 3.97207,-2.62834 14.31343,-9.55922 29.29431,-18.66969 45.52426,-24.58779 5.56404,-1.68866 11.66873,-3.9278 17.44319,-1.98353 0,0 -21.26717,13.99304 -21.26717,13.99304 z"
       id="path3559"
       style="fill:#000000;fill-opacity:1;fill-rule:nonzero;stroke:none;stroke-width:1px;stroke-linecap:butt;stroke-linejoin:miter;stroke-opacity:1" />
    <path
       d="m 188.04304,571.17157 c 9.68193,-4.96679 19.35224,-12.39609 30.04232,-16.15078 4.78696,-1.68133 9.79004,-2.81413 14.63366,-4.32911 12.98543,-3.63952 25.61553,-8.29873 38.10088,-13.36716 13.26875,-6.08517 26.39385,-12.47543 40.03167,-17.70264 4.91918,-2.30492 10.48129,-2.87376 15.51751,-4.76954 0.0643,-0.0697 0.26962,-0.26479 0.19297,-0.20898 -18.91315,13.77189 -13.14184,15.33556 -24.60082,15.43836 -10.3365,0.12166 -9.59466,4.27357 19.01541,-13.03626 0,0 -22.29958,12.42567 -22.29958,12.42567 l 0,0 c 21.20882,-14.36343 13.02266,-14.33506 23.82519,-14.37203 9.34059,-0.2638 24.8772,3.29939 -16.39519,15.28772 -4.88027,0.63769 -9.52226,2.70351 -14.19982,4.08621 -13.49813,5.15742 -26.4303,11.59567 -39.63384,17.44568 -12.68103,5.09492 -25.5147,9.73635 -38.64701,13.54592 -4.96148,1.54075 -10.02821,2.87618 -14.85437,4.81823 -8.57546,3.45079 -23.87002,13.18779 12.9498,-8.24645 0,0 -23.67878,9.13516 -23.67878,9.13516 z"
       id="path3561"
       style="fill:#000000;fill-opacity:1;fill-rule:nonzero;stroke:none;stroke-width:1px;stroke-linecap:butt;stroke-linejoin:miter;stroke-opacity:1" />
    <path
       d="m 357.70016,565.67997 c 2.29973,14.27311 4.01543,28.63083 5.74149,42.98868 2.47941,20.97403 5.21963,41.94047 6.83651,63.0031 0.71038,10.91263 0.77525,21.84919 0.98771,32.7782 -0.40878,12.33079 -6.84139,10.63406 -23.7331,17.98848 -0.63278,0.2755 -2.09886,-2.60446 -3.19237,-4.54385 -6.28345,-15.88597 -6.65963,-33.31177 -7.05437,-50.15557 0.74466,-24.08034 3.69031,-48.5875 12.50261,-71.18919 1.61043,-4.13042 3.64589,-8.08227 5.46883,-12.1234 6.79159,-12.70384 15.79127,-24.07445 28.61197,-31.07258 28.06319,-15.31819 18.31518,-12.60006 36.12908,-16.13192 9.34708,-0.66624 19.33977,-0.0163 27.19524,5.74252 4.67663,3.42845 5.31064,5.32803 8.45571,10.09725 5.70338,12.55198 5.08067,26.28629 1.34156,39.32338 -0.83154,2.89931 -1.95103,5.70818 -2.92655,8.56227 -5.26551,12.76084 -12.99272,24.39829 -23.69384,33.24262 -1.62523,1.34322 -3.40149,2.49245 -5.10223,3.73867 -9.04719,3.58923 -21.39152,15.61783 -33.55611,16.68073 -1.51067,0.132 -3.94537,0.0711 -5.36486,-0.80919 -0.56985,-0.3534 -0.89453,-0.99916 -1.34179,-1.49874 -0.16798,-1.87626 -0.81172,-3.23463 1.23795,-4.53711 11.00351,-6.99225 20.10375,-15.27879 32.95749,-15.65824 1.85444,-0.0548 3.70762,0.14614 5.56142,0.21921 15.69005,2.2621 28.38893,11.52614 40.15358,21.51655 10.21218,9.54444 19.46514,20.04293 30.09702,29.13563 5.3885,4.32991 11.69149,6.32983 18.18497,3.15596 1.3426,-0.65624 2.56516,-1.53391 3.84773,-2.30087 -5.48833,2.90853 -10.57013,6.76805 -16.46499,8.72557 -2.06826,0.68682 3.11483,-3.06132 4.4926,-4.74986 1.66426,-2.03965 3.20689,-4.1846 4.61327,-6.40992 5.65742,-8.9517 9.34245,-18.75276 13.13158,-28.57931 6.42401,-18.69168 9.99434,-38.22944 10.55697,-57.9666 -1.96942,-0.74426 0.8429,-5.02838 -0.81922,-6.38603 -0.48131,-0.39314 -0.33475,2.08039 0.24189,1.84865 7.19142,-2.89009 13.33757,-8.35853 20.83585,-10.31937 1.71132,-0.44752 -0.85456,3.43555 -1.16865,5.1763 -0.44549,2.46894 -0.73903,4.96289 -1.10855,7.44434 -2.21561,20.24169 -3.59181,40.57323 -3.69979,60.93637 0.52785,9.41916 -0.41563,22.63507 3.7406,31.40294 0.47555,1.0032 1.19869,1.86905 1.79803,2.80358 0,0 -21.38442,12.37779 -21.38442,12.37779 l 0,0 c -0.62223,-1.12836 -1.37924,-2.19228 -1.86668,-3.38508 -1.28923,-3.15488 -1.77213,-6.5748 -2.15399,-9.9274 -0.86345,-7.58077 -0.82293,-15.22479 -0.68314,-22.84011 0.49867,-20.31232 1.99903,-40.57683 3.0679,-60.86403 0.16607,-2.42601 0.30726,-4.85386 0.4982,-7.27804 0.13308,-1.68962 -0.77502,-3.91656 0.47377,-5.06245 1.19036,-1.09226 20.59652,-22.41357 23.58071,-13.98237 0.8168,2.3077 -1.04913,5.14856 -0.0254,7.34392 -1.73662,20.07061 -5.28929,39.99402 -11.51015,59.19183 -3.47622,9.76995 -6.84293,19.5704 -11.94365,28.6507 -0.92144,1.64034 -6.20909,10.13411 -8.22766,11.56509 -8.01515,5.68203 -16.6775,10.39103 -25.01626,15.58654 -1.42616,0.66611 -2.78907,1.4891 -4.27848,1.99833 -7.19024,2.45837 -13.93684,-0.62847 -19.33013,-5.3638 -10.13644,-9.47561 -19.06598,-20.14188 -29.24047,-29.58045 -12.02167,-9.96413 -23.91555,-18.27548 -39.95072,-19.66277 -4.56374,0.15825 -5.95903,-0.0911 -10.27584,1.15311 -1.33495,0.38475 -5.04125,2.29019 -3.87455,1.53591 41.47974,-26.81734 22.25856,-10.68553 15.63429,-10.05956 4.90766,5.11724 35.95475,-16.28793 -3.68599,7.534 1.79589,-1.18405 3.67231,-2.25416 5.38767,-3.55214 11.04632,-8.35853 19.18565,-19.71203 24.64905,-32.355 0.99458,-2.77481 2.13452,-5.50175 2.98373,-8.32444 3.71467,-12.34716 4.46071,-25.37394 -1.00006,-37.30651 -2.97861,-4.38559 -3.4842,-6.00903 -7.89624,-9.08349 -7.54107,-5.25487 -17.00567,-5.56907 -25.79371,-4.67064 -15.23957,3.56033 -4.94182,2.15678 4.06274,-6.36766 2.30032,-2.17767 -5.64397,2.92348 -8.22415,4.76098 -9.30741,6.62836 -16.24177,15.71478 -21.903,25.51309 -1.91872,4.00203 -4.05859,7.90536 -5.75617,12.00609 -9.18625,22.19072 -12.27199,46.44886 -12.5193,70.29358 0.84014,16.12354 1.68217,32.95473 8.90983,47.72432 0.45924,0.62818 0.8207,1.34116 1.37772,1.88453 0.20964,0.2045 1.08176,0.11632 0.83485,0.27383 -6.86608,4.37984 -13.97059,8.37419 -20.95588,12.56129 0.99854,-0.72192 1.1227,-0.61382 1.56025,-2.06384 0.22572,-0.74804 0.27542,-1.53825 0.41313,-2.30738 0.60148,-11.09325 0.80011,-22.21177 0.48163,-33.31812 -0.95032,-21.12889 -3.32776,-42.19917 -6.21417,-63.14341 -2.03182,-13.9718 -3.86781,-28.03637 -8.11923,-41.54938 0,0 22.41878,-11.98611 22.41878,-11.98611 z"
       id="path3563"
       style="fill:#000000;fill-opacity:1;fill-rule:nonzero;stroke:none;stroke-width:1px;stroke-linecap:butt;stroke-linejoin:miter;stroke-opacity:1" />
    <path
       d="m 635.27064,624.35303 c 2.30654,-6.61194 4.89581,-13.19507 4.78593,-20.2801 -0.8144,-2.9217 -2.04137,-4.1431 -5.14063,-3.01488 -1.25524,0.45694 -4.77455,2.39548 -3.60643,1.74745 19.22474,-10.66511 20.21354,-12.14457 10.22155,-3.79908 -11.62065,11.42093 -20.80014,25.27831 -27.30368,40.21197 -1.17032,2.68732 -2.08886,5.47741 -3.13329,8.21612 -2.00595,7.39765 -6.00277,21.17135 1.2058,27.34264 0.91297,0.7816 2.14655,1.08166 3.21982,1.6225 1.35226,0.0362 2.71739,0.29812 4.05678,0.10852 5.93389,-0.83995 11.76788,-5.02897 10.87724,-4.57964 -4.3583,2.19874 -8.10272,6.85391 -12.98359,6.77418 -3.57798,-0.0584 5.63772,-4.42158 8.26488,-6.85127 3.04571,-2.81679 5.82143,-5.91214 8.73215,-8.86821 16.90932,-19.05496 30.58725,-40.76163 41.45511,-63.76992 2.09318,-4.43146 3.93746,-8.97627 5.90618,-13.4644 5.68862,-14.11803 10.42024,-28.83 12.03137,-44.03591 0.57537,-5.43036 0.39305,-7.80767 0.30127,-13.02542 -0.4754,-1.47038 -0.44612,-7.18372 -3.14325,-7.60507 -1.18629,-0.18533 -3.88791,2.78217 -2.80957,2.25413 6.44211,-3.15455 12.62309,-6.81656 18.93463,-10.22484 -8.43698,11.48332 -11.63629,25.63556 -14.59303,39.30637 -3.83977,20.22309 -5.35595,40.75158 -6.24189,61.28299 -0.70831,15.45541 -0.25269,30.92354 2.37763,46.17687 1.5114,8.00651 3.32108,14.78549 8.64879,21.05533 3.66795,3.77361 8.14601,2.54565 12.59068,1.06705 7.91109,-3.93941 11.18504,-5.63364 -15.38076,8.94532 -1.15284,0.63267 2.2227,-1.40836 3.2943,-2.17059 3.81993,-2.71713 7.12631,-5.91824 10.48052,-9.17399 9.39648,-9.65024 17.55252,-20.39453 25.34928,-31.34859 6.91667,-9.63903 13.36015,-19.60827 18.25438,-30.43317 0.18875,-0.52614 2.00498,-5.18092 1.19372,-5.97335 -0.15609,-0.15246 -0.36735,0.23568 -0.54725,0.35914 -2.37104,1.62728 -0.17292,0.20027 -3.34828,2.1925 34.70942,-20.3207 17.80841,-10.89085 11.21713,-4.58822 -4.14227,3.96087 -7.53551,8.44773 -10.89903,13.0605 -6.3572,8.87451 -10.12862,18.86336 -12.19627,29.49371 -1.15333,8.07147 0.3622,13.80548 5.22753,20.19272 4.88682,4.9053 9.72283,4.66887 15.87869,2.489 10.84267,-6.67741 -7.08012,4.42621 -14.29793,7.72955 -1.49519,0.68429 2.49965,-2.14611 3.62985,-3.34047 4.33456,-4.58067 7.35153,-9.92572 10.39859,-15.3886 5.67573,-10.82112 8.86889,-22.53358 9.69357,-34.67858 -0.0752,-2.77686 -0.0568,-5.63281 -1.06602,-8.26895 -0.33484,-0.87461 -0.87045,-1.76214 -1.13123,-1.64609 -0.23188,0.10319 -0.14297,0.48706 -0.21446,0.73059 7.20249,-3.84842 14.40845,-7.69036 21.60748,-11.54526 0.26696,-0.14295 -0.5992,0.19293 -0.81107,0.4093 -0.29867,0.30504 -0.49763,0.70223 -0.66274,1.09591 -0.73579,1.75443 -0.82153,3.80333 -1.00839,5.6641 -0.17927,4.64844 1.25596,9.09858 2.41868,13.53814 1.43322,6.39934 2.46797,12.848 4.70372,19.03041 1.16198,2.69051 2.34918,8.09672 6.36751,7.3948 0.74446,-0.13004 1.43982,-0.45979 2.15973,-0.68968 10.28422,-6.16598 -9.26934,5.60912 -15.12614,8.03972 -1.79918,0.74667 2.91778,-2.58948 4.25334,-4.00752 5.08374,-5.39775 9.24488,-11.57329 13.40519,-17.67722 3.44085,-5.13343 6.4369,-10.536 9.27428,-16.01869 0.88683,-1.71364 2.34578,-3.90353 2.62372,-5.9139 7.70527,-2.96341 15.09933,-6.91817 23.11582,-8.89022 1.14712,-0.28219 -0.62429,2.27898 -0.90519,3.42642 -0.39438,1.61094 -0.7927,3.22193 -1.12041,4.84774 -1.28021,6.35121 -1.93375,12.67884 -2.40331,19.13154 0.27076,8.59369 0.4554,20.01282 8.49287,25.47374 1.27441,0.86587 2.81248,1.25913 4.21872,1.8887 1.7011,0.20301 3.39084,0.65849 5.1033,0.60903 4.36585,-0.12609 8.88774,-1.65775 12.77126,-3.48748 2.65494,-1.25088 10.45018,-5.28618 7.69113,-4.28566 -3.91659,1.42028 -7.68318,7.79717 -11.19545,5.55644 -3.16053,-2.01632 5.77568,-4.78116 8.66353,-7.17174 13.61776,-12.40766 25.1013,-27.05821 32.73003,-43.85937 0.61326,-1.90967 1.56174,-4.10124 1.54693,-6.20694 -10e-4,-0.1579 -0.48725,-0.25484 -0.34539,-0.32418 7.18818,-3.51371 14.33387,-7.1519 21.75539,-10.14141 0.96581,-0.38904 -1.60273,1.37495 -2.16616,2.25055 -0.95417,1.48286 -1.55737,3.16415 -2.33605,4.74623 -7.36133,23.02029 -8.48541,47.49183 -10.80106,71.39926 -2.81749,24.312 -5.13252,49.17328 -13.93386,72.23558 -1.63076,4.27311 -3.69322,8.36872 -5.53984,12.55308 -5.90441,11.37646 -13.28634,21.95753 -23.47029,29.93919 -9.37978,7.35141 -34.3877,19.01728 -39.81838,21.12188 -3.47919,1.34832 -7.42271,0.77095 -11.13407,1.15643 -3.71796,-0.35499 -7.48422,-0.37014 -11.1539,-1.06498 -17.53137,-3.3195 -30.96094,-13.27917 -43.80033,-24.94766 -4.57087,-4.02985 -8.31888,-8.77752 -11.9189,-13.65077 0,0 21.08802,-12.37661 21.08802,-12.37661 l 0,0 c 3.0642,4.97857 6.341,9.7631 10.66444,13.7779 2.03569,1.94929 3.9753,4.00416 6.10708,5.84788 10.29683,8.90548 22.65402,16.00705 36.26587,18.19903 3.59177,0.5784 7.26135,0.46273 10.89203,0.6941 33.32741,-4.66501 -5.98345,-1.08133 2.07017,5.68571 3.00067,2.52131 6.93921,-3.70128 10.10386,-6.01342 10.44507,-7.63131 18.09541,-18.00382 24.1979,-29.26554 1.89863,-4.12732 4.00996,-8.16329 5.6959,-12.38197 9.14313,-22.87862 11.76591,-47.66227 14.4627,-71.93628 2.04455,-23.64407 2.90356,-47.57324 7.99628,-70.81584 0.54867,-1.63154 1.06577,-3.27405 1.64603,-4.89463 0.37867,-1.05758 0.25801,-2.57428 1.22993,-3.13754 19.51137,-11.30747 28.73926,-19.07592 22.60256,-2.4173 -8.36982,17.03372 -19.90414,32.30868 -33.69613,45.35264 -15.7922,13.76069 -7.80186,7.59921 -36.4735,24.62367 -6.62324,3.93271 -14.2628,7.54855 -22.19796,7.14128 -1.91302,-0.0982 -3.75433,-0.76298 -5.6315,-1.14448 -1.54221,-0.85644 -3.23428,-1.48614 -4.62663,-2.56932 -8.2251,-6.39878 -8.74574,-18.01509 -9.02605,-27.48648 0.40745,-8.01888 1.21716,-15.94522 2.45681,-23.88053 0.15504,-0.99244 -0.34157,-2.44924 0.51826,-2.96853 7.44902,-4.49886 15.6249,-7.66636 23.43735,-11.49953 -1.75121,-0.34455 -0.91008,-0.50603 -2.30577,1.76217 -4.04297,6.57042 -7.45749,13.52069 -11.83127,19.89279 -12.05839,18.2251 -20.50523,30.50161 -44.14556,38.06883 -0.94315,0.008 -1.89928,0.1793 -2.82944,0.0231 -4.57382,-0.768 -5.99864,-6.06061 -7.36199,-9.71003 -2.19954,-6.23201 -3.45892,-12.69319 -4.95177,-19.12013 -1.29905,-4.67662 -2.89585,-9.32201 -2.94044,-14.23401 0.93544,-15.72187 1.62742,-9.81707 24.16879,-21.56346 3.91609,2.97644 3.35389,8.59158 3.39008,13.00418 -1.11975,12.62521 -4.16939,24.38228 -9.7747,35.82018 -10.29783,20.02134 -16.89156,25.57417 -41.09847,35.86615 -7.20715,1.57042 -12.47772,0.75856 -17.60431,-4.9368 -5.15198,-7.1258 -6.87585,-13.3318 -5.7875,-22.20051 2.05695,-10.93747 5.68905,-21.30545 12.03993,-30.56265 12.53892,-18.17056 19.47168,-22.05455 41.32602,-33.58805 0.89349,-0.28589 1.74642,-0.77048 2.68047,-0.85766 5.98662,-0.55878 4.23126,6.51853 2.77302,9.62808 -5.18052,11.05026 -11.81389,21.2898 -18.90276,31.20703 -7.65909,10.88881 -15.53914,21.66346 -24.57716,31.46576 -1.85349,1.90114 -4.77171,4.96395 -6.7885,6.77409 -9.75415,8.75472 -21.71563,15.31843 -33.8004,20.11232 -5.7569,1.3488 -10.06134,1.24948 -14.23233,-3.45993 -5.15368,-6.67197 -7.29937,-14.31825 -8.47456,-22.60893 -2.40655,-15.59315 -2.42687,-31.38337 -1.61347,-47.12061 1.00684,-20.58158 2.52843,-41.14706 5.87707,-61.50092 2.62826,-13.72877 5.536,-27.53682 12.54914,-39.81831 7.81479,-5.03236 15.48204,-10.30157 23.44436,-15.0971 1.54865,-0.93272 3.40478,-0.63881 4.76914,0.42376 2.82171,2.19757 2.71224,6.70556 3.10734,9.77526 -0.1873,5.52161 -0.14208,8.03983 -0.95919,13.75778 -2.22939,15.60077 -7.26081,30.68392 -13.20644,45.21943 -2.02203,4.55258 -3.93262,9.15631 -6.06611,13.65773 -10.82735,22.84442 -24.04874,44.60819 -40.33613,63.98482 -3.70835,4.02012 -11.02311,12.51285 -15.88546,15.77885 -8.83034,5.93128 -18.05497,11.26085 -27.26403,16.58514 -5.45775,3.15543 -10.85722,4.78667 -17.00387,2.98351 -1.2385,-0.8455 -2.66732,-1.46407 -3.71549,-2.53649 -7.43058,-7.60246 -3.5516,-21.31053 -1.12396,-30.0092 1.08962,-2.83134 2.06019,-5.71141 3.26888,-8.49401 6.46904,-14.89281 15.31575,-28.84817 26.31387,-40.79162 11.71325,-10.97513 6.67546,-6.96751 31.00622,-20.20455 3.48772,-1.89747 8.04854,-1.65041 10.30078,1.90423 0.5991,0.94555 0.77687,2.09962 1.16531,3.14943 0.0414,1.20295 0.18984,2.40697 0.12415,3.60883 -0.32326,5.91415 -2.81497,11.40726 -4.09901,17.11914 0,0 -22.85038,10.85283 -22.85038,10.85283 z"
       id="path3565"
       style="fill:#000000;fill-opacity:1;fill-rule:nonzero;stroke:none;stroke-width:1px;stroke-linecap:butt;stroke-linejoin:miter;stroke-opacity:1" />
  </g>
</svg>
