<?xml version="1.0" encoding="UTF-8" standalone="no"?>
<svg
   xmlns:dc="http://purl.org/dc/elements/1.1/"
   xmlns:cc="http://creativecommons.org/ns#"
   xmlns:rdf="http://www.w3.org/1999/02/22-rdf-syntax-ns#"
   xmlns:svg="http://www.w3.org/2000/svg"
   xmlns="http://www.w3.org/2000/svg"
   version="1.1"
   id="svg2"
   viewBox="0 0 1440 900"
   height="900"
   width="1440">
  <defs
     id="defs4" />
  <metadata
     id="metadata7">
    <rdf:RDF>
      <cc:Work
         rdf:about="">
        <dc:format>image/svg+xml</dc:format>
        <dc:type
           rdf:resource="http://purl.org/dc/dcmitype/StillImage" />
        <dc:title></dc:title>
      </cc:Work>
    </rdf:RDF>
  </metadata>
  <g
     transform="translate(0,-152.36202)"
     id="layer1">
    <path
       d="m 173.99243,477.08243 c 2.34715,-11.39496 6.11183,-22.41828 9.7549,-33.44544 6.34867,-19.00709 14.83281,-37.18256 23.98588,-54.97506 8.74949,-16.24714 20.02553,-30.85166 32.13185,-44.6988 4.90401,-4.90692 9.41092,-10.77323 15.47027,-14.3978 8.25423,-4.93751 16.4935,-9.9443 25.1198,-14.19851 1.31993,-0.65095 2.9575,-0.64941 4.40048,-0.35995 1.46759,0.29439 2.66531,1.3631 3.99797,2.04465 1.10559,1.46782 2.47455,2.77022 3.31677,4.40347 2.24026,4.34439 3.66936,11.5058 4.38253,16.04778 2.20581,14.04821 2.22486,28.28396 2.5222,42.45912 0.29498,39.16539 -2.73019,78.25498 -6.44314,117.21366 -2.79234,30.7404 -7.62729,61.22177 -13.18701,91.56519 -2.60437,14.79823 -6.07997,29.41536 -9.37008,44.06947 -2.43929,10.52603 5.37068,7.0017 -23.63586,11.85369 -1.61614,0.27034 0.33561,-3.26074 0.56449,-4.88327 0.71402,-5.06164 2.31757,-14.27706 3.0885,-18.83531 4.84319,-28.05956 9.4631,-56.19003 15.88581,-83.94547 1.39797,-6.04127 2.98991,-12.03602 4.48486,-18.05403 5.37578,-18.47095 10.02596,-37.4411 18.51997,-54.81996 3.25216,-6.65396 4.43905,-7.89737 8.44343,-13.53264 9.84477,-9.99589 5.20026,-5.94515 28.31158,-18.14843 2.95152,-1.55847 7.652,-0.37383 10.07976,1.63251 0.96226,0.79524 1.62361,1.89665 2.43542,2.84498 0.65244,1.35695 1.47123,2.64583 1.95733,4.07086 2.5621,7.51093 2.48096,16.10863 2.52708,23.913 0.0583,9.85923 -0.34959,16.28036 -0.77772,26.29282 -1.29796,28.70851 -3.08963,57.39264 -4.31775,86.10438 -0.0863,2.75762 -0.23517,5.51398 -0.25878,8.27285 -0.10874,12.71091 6.22793,11.26425 -21.56864,15.88374 -1.952,0.3244 0.9688,-3.83753 1.40613,-5.76737 0.71796,-3.16816 1.37298,-6.35027 2.05947,-9.5254 7.719,-38.9556 18.9955,-77.02408 31.19238,-114.77238 6.92728,-20.06189 14.11235,-40.09686 22.98586,-59.39997 3.44151,-7.48655 8.18326,-17.01355 13.00456,-23.97605 1.60255,-2.31425 3.59207,-4.33505 5.3881,-6.50258 8.43979,-4.96919 16.40972,-10.8405 25.31936,-14.90758 1.57788,-0.72027 3.60123,0.15174 5.10242,1.02061 8.8149,5.10196 9.5321,25.22803 10.43558,33.66437 1.97279,37.08915 -1.17534,74.20784 -4.55992,111.11925 -3.64427,35.12176 -7.5841,70.22347 -8.75308,105.53233 0,0 -19.46043,9.79737 -19.46043,9.79737 l 0,0 c 2.25449,-35.58976 6.69403,-70.96559 10.34506,-106.42881 3.2953,-36.40956 6.20505,-73.12754 2.69022,-109.63979 -1.32658,-8.63307 -1.85926,-19.53625 -7.21756,-27.00492 -0.87402,-1.21825 -2.04311,-2.34251 -3.43184,-2.90774 -1.19583,-0.48673 -4.85966,0.76707 -3.87273,-0.0653 4.44778,-3.75137 9.89502,-6.1246 14.84254,-9.1869 -2.13531,2.18047 -4.49781,4.15958 -6.40593,6.54139 -5.65212,7.05528 -10.89021,16.55355 -14.86796,24.45367 -9.693,19.25104 -17.30931,39.46447 -24.36674,59.79911 -2.41904,7.61134 -4.95084,15.18775 -7.25711,22.83402 -8.87784,29.43374 -16.04907,59.45094 -20.37283,89.90475 -0.38073,3.01301 -0.82773,6.01839 -1.14221,9.03904 -0.1907,1.83174 1.07066,4.36852 -0.37271,5.51235 -35.29369,27.96917 -23.95282,20.52146 -22.6175,10.9551 0.65425,-4.68717 0.86397,-9.43044 1.53738,-14.11434 2.61422,-28.7315 4.58045,-57.5288 5.06847,-86.38359 0.11945,-10.31201 0.35352,-15.55403 -0.15042,-25.61278 -0.36531,-7.29158 -0.70763,-15.38159 -3.45356,-22.28215 -0.47319,-1.18913 -1.22571,-2.24709 -1.83857,-3.37063 -2.25125,-2.25566 -3.77711,-3.5254 -7.22146,-2.9706 -1.09353,0.17614 -4.09075,1.61156 -3.17024,0.99554 26.22006,-17.54703 19.75781,-12.55357 12.55282,-6.5786 -4.5372,5.52122 -6.0221,6.8822 -9.72878,13.54338 -9.60272,17.25685 -14.84425,36.54782 -20.52191,55.31366 -1.53524,6.01027 -3.19155,11.9909 -4.60574,18.0308 -6.38508,27.27031 -10.53944,55.02004 -13.91204,82.80319 -0.69666,6.73057 -1.29821,11.37296 -1.59864,17.90623 -0.0652,1.41729 1.12484,3.42521 -0.0251,4.2563 -7.03886,5.08739 -15.41425,8.01785 -22.94438,12.345 -0.81887,0.47056 7.06013,0.5111 1.98286,-2.02386 4.58939,-14.78693 8.49533,-29.77903 11.58301,-44.9544 6.33079,-30.52035 11.86474,-61.21648 15.03128,-92.24977 4.03652,-38.70055 7.12928,-77.61204 5.76738,-116.55574 -0.72765,-13.78771 -1.17548,-27.60121 -4.06233,-41.15662 -0.84883,-3.98572 -2.60295,-10.72875 -4.88195,-14.5296 -0.74874,-1.24874 -1.95119,-2.16164 -2.92678,-3.24246 -1.05888,-0.32954 -2.06801,-0.96097 -3.17664,-0.98862 -5.60521,-0.13981 -26.05367,12.84278 12.43458,-8.99046 1.83374,-1.04023 -3.55522,2.2796 -5.2096,3.58641 -4.34558,3.43261 -7.21485,6.63058 -11.10464,10.60083 -12.26661,13.69858 -23.65948,28.19026 -32.63549,44.30397 -9.2701,17.52849 -17.82597,35.49205 -23.79556,54.44844 -3.25413,10.59016 -6.79484,21.19889 -8.17805,32.23565 0,0 -22.71097,11.16878 -22.71097,11.16878 z"
       id="path3403"
       style="fill:#000000;fill-opacity:1;fill-rule:nonzero;stroke:none;stroke-width:1px;stroke-linecap:butt;stroke-linejoin:miter;stroke-opacity:1" />
    <path
       d="m 463.73788,581.81176 c 2.59373,-5.11758 5.2226,-10.19862 7.55294,-15.44465 0.94805,-2.34223 2.07342,-4.63569 2.64148,-7.11306 0.29787,-1.29906 0.33586,-2.10316 0.10701,-2.14451 -0.21056,-0.038 -0.29296,0.31194 -0.43944,0.4679 -5.98726,5.16223 -19.44144,8.59551 15.06459,-7.95979 1.44678,-0.69413 -2.48173,2.04013 -3.63768,3.15313 -3.87546,3.73148 -4.6997,5.0761 -8.15445,9.40714 -8.60008,11.6876 -15.31979,23.99048 -19.97107,37.72405 -1.00752,4.10128 -3.94869,14.21441 2.52274,15.89753 0.95823,0.24921 1.97685,0.11525 2.96528,0.17288 10.14169,-0.74737 42.53474,-20.46266 7.92479,-0.85445 6.83882,-4.79611 14.83814,-9.31744 19.27124,-16.71136 0.70316,-1.1728 1.15837,-2.47746 1.73755,-3.71619 2.41593,-8.97107 -0.0432,-14.99573 -6.3568,-21.4267 -2.18947,-1.62363 -4.83062,-3.22627 -7.6057,-1.79253 -0.77935,0.40265 -2.80321,2.08219 -2.02042,1.68628 19.6478,-9.93726 22.93952,-16.80774 17.39003,-7.29165 -2.38688,7.15899 -2.6379,14.97343 -0.11317,22.12027 0.35018,0.26997 0.61794,0.90134 1.05055,0.8099 0.52828,-0.11167 1.51663,-1.48482 1.0305,-1.2498 -6.51079,3.14757 -12.43561,7.56614 -19.22835,10.04736 -1.70251,0.62188 2.34835,-2.7691 3.38099,-4.25872 2.84003,-4.09682 5.73717,-9.52579 8.13838,-13.79932 6.39553,-10.71283 10.61334,-23.44546 19.6659,-32.40726 0.88145,-0.87261 1.95559,-1.52618 2.93338,-2.28926 8.17662,-4.05209 15.92778,-9.1098 24.52985,-12.15625 1.25212,-0.44344 2.34578,1.33844 3.23858,2.32198 5.52923,6.09118 6.88943,17.4797 8.46544,25.15814 1.42916,7.7769 2.46283,15.61996 3.41022,23.46774 0.5088,4.21474 0.72892,8.45906 1.8761,12.55558 0.33134,-9.31312 0.27065,3.19232 -20.89757,8.82076 -1.68765,0.44873 1.119,-3.30933 1.61587,-4.98344 2.58491,-8.70925 4.75611,-17.55686 7.10038,-26.33227 2.62413,-8.65806 4.59858,-17.69939 8.68566,-25.84748 0.82003,-1.63483 1.4299,-3.59297 2.93027,-4.63892 7.64263,-5.3279 15.54771,-10.44709 24.07917,-14.19015 1.31414,-0.57655 2.56237,1.29299 3.84355,1.93948 1.10694,1.52181 2.40831,2.91967 3.32083,4.56543 4.01746,7.24568 5.81958,15.86698 7.83617,23.8001 0.0674,0.26498 4.2613,17.19166 4.39977,17.75049 1.51039,6.6471 3.5798,13.11105 5.96358,19.48498 0,0 -21.14696,11.66001 -21.14696,11.66001 l 0,0 c -2.02637,-6.63428 -3.81617,-13.32614 -5.25366,-20.11722 -2.07211,-8.89958 -3.98616,-17.89358 -6.81228,-26.59522 -1.3385,-4.12121 -3.36134,-9.75578 -5.84931,-13.49457 -0.80844,-1.21489 -1.98841,-2.13643 -2.98261,-3.20464 -8.71875,-1.29635 -7.92024,-0.60977 14.76096,-11.18436 1.74217,-0.81225 -2.67095,2.80316 -3.68258,4.43763 -4.84133,7.82209 -6.8123,17.11738 -9.48075,25.77495 -2.23054,9.11146 -2.47341,9.79401 -4.36172,18.64204 -0.50182,2.35136 -0.97008,4.70982 -1.43452,7.06884 -0.31828,1.61662 0.34369,3.79288 -0.91358,4.85778 -21.22751,17.97952 -17.25589,22.0966 -23.81587,13.53285 -1.09825,-12.23621 -1.00213,-24.63004 -3.86124,-36.67467 -1.52469,-6.62763 -2.71536,-13.65417 -6.18273,-19.63192 -0.66322,-1.14338 -1.42324,-2.27519 -2.4251,-3.13742 -0.65637,-0.56488 -3.07435,-0.47436 -2.39369,-1.00973 5.69471,-4.47907 12.26394,-7.7177 18.39591,-11.57655 -1.18556,0.62445 -2.49697,1.05329 -3.55667,1.87336 -2.73324,2.11516 -6.2263,6.66476 -8.05985,9.32973 -4.95598,7.20329 -8.68201,15.13628 -12.67175,22.88495 -2.63249,5.10598 -4.44318,8.73899 -7.19925,13.66332 -0.85096,1.52043 -1.22376,3.49739 -2.64111,4.51079 -7.58578,5.42374 -15.66147,10.18013 -23.93182,14.48855 -1.68635,0.8785 -3.2028,-1.90186 -3.76559,-2.65694 -2.1976,-7.80187 -2.23871,-15.99924 -0.44841,-23.90031 4.48544,-12.09633 0.67028,-4.03316 24.52022,-18.58447 3.95322,-2.41194 8.26883,0.41013 11.19972,2.95449 6.44664,7.1139 9.6809,14.23757 7.59625,23.96853 -0.52472,1.40162 -0.89858,2.8694 -1.57417,4.20486 -4.03003,7.96631 -12.34926,12.76328 -19.28658,17.81549 -8.5694,4.99841 -17.10492,10.05536 -25.7082,14.99521 -7.61786,4.37403 -15.99067,8.56817 -24.92465,8.73415 -1.21318,-0.32934 -2.5133,-0.42958 -3.63954,-0.98802 -7.11119,-3.52609 -4.86558,-13.21826 -3.23608,-19.1295 1.85741,-5.41755 2.36346,-7.30489 4.79713,-12.63476 4.13491,-9.0557 9.49106,-17.51256 14.92879,-25.82398 2.02694,-2.7923 7.83918,-11.03426 10.77313,-12.93414 7.91284,-5.12395 16.11683,-9.78775 24.29896,-14.46972 2.29815,-1.31504 2.48663,-0.95834 4.76886,-0.6559 0.51232,0.46153 1.14962,0.8141 1.53695,1.38458 1.87506,2.76167 -1.5979,8.53622 -2.4937,11.12054 -2.28323,5.06277 -4.52068,10.13574 -7.03229,15.09369 0,0 -23.05876,10.66434 -23.05876,10.66434 z"
       id="path3405"
       style="fill:#000000;fill-opacity:1;fill-rule:nonzero;stroke:none;stroke-width:1px;stroke-linecap:butt;stroke-linejoin:miter;stroke-opacity:1" />
    <path
       d="m 674.29984,567.04407 c -0.73088,-4.17856 -2.62411,-8.51344 -6.47344,-10.72989 -0.87299,-0.50267 -1.87174,-0.74548 -2.80761,-1.11822 -3.35216,-0.20697 -3.5314,-0.55979 -6.85163,0.71185 -1.33754,0.51227 -5.08963,2.62656 -3.84603,1.91598 5.55412,-3.17357 10.97317,-6.62927 16.78231,-9.30764 1.66945,-0.76972 -2.93618,2.23056 -4.24114,3.5254 -1.43122,1.4201 -2.62563,3.06046 -3.93844,4.59068 -6.77823,9.70126 -11.0119,21.01822 -11.74969,32.87967 -0.14058,2.26011 0.0264,4.52888 0.0396,6.79332 0.62864,5.13547 2.73088,19.54212 10.70291,18.72408 1.19192,-0.12231 2.21864,-0.90563 3.32795,-1.35845 -5.68344,2.98985 -10.91739,7.06484 -17.05031,8.96955 -2.21588,0.68819 3.31217,-3.27498 4.70053,-5.13406 1.75283,-2.34712 3.27415,-4.86793 4.68582,-7.43475 5.56907,-10.12617 9.19883,-21.10258 12.96821,-31.97221 8.01891,-24.51016 11.63774,-50.09118 13.79905,-75.69646 1.21835,-12.41439 0.72922,-24.87365 0.79399,-37.31255 0.52795,-9.82754 17.48003,-22.06147 23.8581,-13.41543 1.95101,2.64477 2.61942,6.26438 3.47339,9.33245 3.33182,15.08407 4.37798,30.546 4.81128,45.94845 0.11712,16.81465 -0.16245,33.6284 -0.14665,50.44335 0.47588,4.71055 -0.8937,13.87761 2.32227,17.93791 7.5862,-4.78701 23.22657,-13.42371 -12.01125,6.71586 8.39552,-5.22261 14.25636,-13.17403 19.72694,-21.21461 7.09881,-10.81454 11.94001,-22.91597 14.9656,-35.45572 -0.28908,2.59239 1.44013,-8.19764 0.40876,-6.66466 -0.30483,0.45307 -0.76898,1.84377 -0.27301,1.61529 6.84347,-3.15265 13.05109,-7.58972 19.92756,-10.66974 1.23944,-0.55516 -1.84815,1.99049 -2.77222,2.98573 -8.72069,10.8103 -14.43231,23.49363 -19.43555,36.33539 -3.94692,10.41684 -7.38204,21.19904 -6.7238,32.44339 1.01776,5.72795 2.48208,9.23394 8.60627,10.09544 1.59064,-0.14779 3.28175,-0.18151 4.7786,-0.85211 0.85603,-0.38351 3.18865,-1.97325 2.36282,-1.5284 -6.21412,3.34736 -12.16363,7.20136 -18.53458,10.23963 -1.2279,0.58558 2.05823,-1.79136 2.95831,-2.81139 1.06857,-1.21098 1.95232,-2.57327 2.92849,-3.8599 7.17271,-11.90822 10.10371,-25.58627 12.19404,-39.15811 0.62527,-7.32524 1.96919,-15.22368 0.19199,-22.52112 2.38372,9.28635 -0.38644,0.19237 22.0372,-10.38596 0.54645,-0.25779 -0.47705,1.11558 -0.62562,1.70124 -0.21177,0.83482 -0.33039,1.69134 -0.45131,2.54407 -0.43258,3.05046 -0.33815,3.09022 -0.40805,6.2265 -0.17178,6.00475 1.43406,11.46711 4.46246,16.58141 2.44851,3.11292 5.48909,6.21022 9.43937,7.17674 -0.30732,1.36781 4.69828,-1.88766 3.58664,-1.27575 -34.55564,19.02151 -21.91697,13.59225 -15.82359,8.00111 3.16675,-2.90573 4.19241,-4.45182 6.96264,-7.87263 6.63487,-8.94105 11.69454,-19.02804 15.32307,-29.53998 3.1822,-10.93277 -2.33112,-2.77884 23.755,-13.31339 0.51406,-0.2076 -0.73331,0.84299 -0.99978,1.32915 -0.91471,1.66881 -1.73135,4.16165 -2.36186,5.89999 -2.33169,6.49467 -3.97717,13.01586 -2.13312,19.8093 3.62786,6.16241 7.83977,5.82025 13.86015,3.35813 10.94047,-7.08064 -5.73087,3.84067 -13.81262,7.02102 -1.70603,0.67136 2.66882,-2.5287 3.83009,-3.94741 1.33367,-1.62931 2.51876,-3.38088 3.63154,-5.16835 3.34363,-5.37093 4.08039,-7.60554 6.69886,-13.49177 5.33488,-14.15848 8.03136,-29.11201 8.24087,-44.21388 -0.32764,-11.74038 -1.99382,-9.7662 22.85727,-14.69997 1.73409,-0.34427 0.57286,3.48916 0.86386,5.23298 1.11708,6.69414 2.2435,13.38672 3.36085,20.08081 4.74447,27.24588 9.43073,54.55971 11.05951,82.2084 0.36891,6.26217 0.44039,12.53831 0.66058,18.80747 0.26988,32.37882 -4.93809,64.64099 -15.73633,95.19104 -2.04264,5.77898 -4.52276,11.39388 -6.78414,17.09082 -8.46155,18.19101 -17.8401,36.94553 -32.77639,50.82767 -10.00412,9.29807 -25.64055,15.56536 -36.46233,21.28983 -2.81523,0.064 -5.66285,0.62275 -8.44569,0.19214 -17.05636,-2.63925 -27.78749,-22.82683 -35.82155,-35.94096 -6.42456,-11.00616 -12.27408,-22.39162 -19.32056,-33.02907 -1.94529,-2.93664 -4.11648,-5.71722 -6.17472,-8.57582 0,0 19.60539,-11.52901 19.60539,-11.52901 l 0,0 c 8.98248,13.61597 16.92628,27.83029 25.04417,41.97439 7.97815,12.27199 19.0309,31.69431 35.56522,33.21934 2.57646,0.23764 5.15654,-0.43427 7.73482,-0.6514 -3.737,2.61544 -7.53142,5.1507 -11.21099,7.84633 -2.97007,2.17585 6.28185,-3.89583 9.08187,-6.28655 15.75332,-13.45057 25.64148,-32.4193 34.51071,-50.71141 2.34136,-5.67655 4.91109,-11.2642 7.02407,-17.02966 11.08831,-30.25536 16.28689,-62.32792 15.961,-94.51527 -0.24887,-6.2167 -0.34647,-12.44131 -0.74661,-18.65011 -1.76313,-27.35827 -6.47748,-54.43065 -12.57867,-81.12721 -1.78799,-7.38325 -2.80021,-12.11926 -4.92361,-19.12512 -0.46999,-1.55065 -2.8062,-3.52767 -1.58678,-4.59463 6.41802,-5.61565 14.49318,-9.00122 21.91857,-13.19527 1.42603,-0.80546 -7.71222,8.73769 -1.0721,4.79494 -0.94716,15.38589 -3.58022,30.65657 -8.49845,45.29515 -2.6367,6.58238 -5.25698,13.27918 -9.38602,19.11945 -7.52656,10.64585 -20.44866,15.67348 -31.85609,21.42373 -1.21762,0.28566 -2.4098,0.71909 -3.65285,0.85696 -5.54941,0.61553 -10.12495,-2.66395 -12.50495,-7.45171 -0.30444,-1.04698 -0.72041,-2.06779 -0.91332,-3.14094 -1.08603,-6.0417 0.77574,-12.31287 2.48812,-18.03123 0.58135,-1.97844 1.27694,-3.92288 1.82922,-5.90963 0.16689,-0.60034 -0.17565,-1.53934 0.37479,-1.83134 24.73803,-13.12307 26.41908,-18.30467 22.16508,-7.12098 -4.16297,10.59046 -9.12597,20.97656 -15.49614,30.42305 -10.24261,14.03886 -13.46464,14.15801 -33.10739,24.78914 -0.75782,0.41016 -1.69335,0.39606 -2.55504,0.39306 -0.72796,-0.003 -1.43011,-0.27295 -2.14516,-0.40943 -4.15628,-1.93314 -7.6079,-4.96137 -10.16101,-8.78137 -3.1582,-5.49919 -5.0146,-11.39868 -4.93412,-17.81029 -0.0833,-3.06326 0.0716,-6.00221 0.29427,-9.05384 0.0511,-0.7003 -0.437,-1.7045 0.14202,-2.10169 22.05388,-15.12805 17.53239,-20.48561 23.55006,-11.99791 0.31522,7.97692 -0.0853,15.99209 -1.3275,23.88151 -2.19917,13.65945 -4.86036,27.42488 -11.18307,39.87121 -7.8381,12.63828 -10.77891,11.03816 -29.14129,21.70373 -2.51352,1.45994 -5.51059,1.43804 -8.27427,1.05957 -6.75849,-2.2519 -8.8309,-6.12662 -9.90701,-13.01895 -0.50763,-11.74737 3.09628,-22.9472 7.25326,-33.82133 4.83108,-12.77786 10.26312,-25.38322 18.15931,-36.61713 0.75363,-1.04267 1.18972,-2.41548 2.26091,-3.12799 7.60674,-5.05963 15.36269,-9.96362 23.54138,-14.03443 1.62821,-0.81041 2.64983,2.39574 2.69164,3.11011 0.0925,1.58041 -0.93387,5.45555 -1.20776,6.66089 -3.4521,12.64836 -8.08491,25.09254 -14.94472,36.31402 -5.08667,8.1113 -10.60343,16.20849 -18.51699,21.83398 -7.96361,4.6664 -15.91278,9.35753 -23.89083,13.9992 -1.70245,0.9905 -4.09105,2.57685 -6.18075,2.54972 -1.65477,-0.0215 -1.83992,-0.49514 -2.9772,-1.45581 -3.39123,-5.87115 -1.36721,-13.57868 -1.65284,-19.96052 0.50633,-16.87738 1.00963,-33.7626 0.78591,-50.6494 -0.51051,-15.04087 -1.66819,-30.1562 -5.73963,-44.71484 -0.8038,-2.25958 -1.37803,-4.25144 -2.52319,-6.32747 -0.2203,-0.39936 -0.41886,-0.87855 -0.82022,-1.09519 -0.17209,-0.0929 -0.33418,0.66352 -0.16677,0.56246 20.59096,-12.42952 25.78455,-19.67985 20.0842,-12.01151 -0.70632,3.96432 -0.78883,7.97661 -1.05577,11.99342 -0.58658,8.82636 -1.23096,17.64887 -2.0236,26.45953 -2.6019,25.72964 -6.19411,51.46733 -13.79319,76.26664 -3.49828,10.80692 -6.88314,21.68056 -11.80512,31.95319 -0.78471,1.63775 -5.84141,11.52101 -8.06275,13.07533 -7.98729,5.58884 -16.77813,9.93086 -25.16719,14.89629 -1.38667,0.0954 -2.79204,0.53249 -4.16002,0.28632 -8.77854,-1.5797 -10.52577,-14.90112 -11.42421,-21.7585 -0.018,-2.37085 -0.17637,-4.74478 -0.054,-7.11253 0.62399,-12.06946 4.42539,-23.72223 10.85178,-33.92781 1.21225,-1.63352 2.30046,-3.36684 3.63675,-4.90055 7.28227,-8.35813 21.69655,-14.45162 29.04844,-18.51378 3.84362,-2.12373 8.03217,-2.30573 12.15918,-1.15213 1.06459,0.54878 2.20033,0.97732 3.19375,1.64635 4.09972,2.761 6.30885,7.38053 7.84029,11.90787 0,0 -22.41878,11.98611 -22.41878,11.98611 z"
       id="path3407"
       style="fill:#000000;fill-opacity:1;fill-rule:nonzero;stroke:none;stroke-width:1px;stroke-linecap:butt;stroke-linejoin:miter;stroke-opacity:1" />
  </g>
</svg>
