<?xml version="1.0" encoding="UTF-8" standalone="no"?>
<svg
   xmlns:dc="http://purl.org/dc/elements/1.1/"
   xmlns:cc="http://creativecommons.org/ns#"
   xmlns:rdf="http://www.w3.org/1999/02/22-rdf-syntax-ns#"
   xmlns:svg="http://www.w3.org/2000/svg"
   xmlns="http://www.w3.org/2000/svg"
   version="1.1"
   id="svg2"
   viewBox="0 0 1440 900"
   height="900"
   width="1440">
  <defs
     id="defs4" />
  <metadata
     id="metadata7">
    <rdf:RDF>
      <cc:Work
         rdf:about="">
        <dc:format>image/svg+xml</dc:format>
        <dc:type
           rdf:resource="http://purl.org/dc/dcmitype/StillImage" />
        <dc:title></dc:title>
      </cc:Work>
    </rdf:RDF>
  </metadata>
  <g
     transform="translate(0,-152.36202)"
     id="layer1">
    <path
       d="m 419.09866,347.07443 c 3.21521,-4.74426 5.9559,-9.70587 7.66506,-15.18747 1.45811,-5.96406 0.2283,-12.08506 -3.96413,-16.73727 -1.03975,-1.15378 -2.31859,-2.0672 -3.47789,-3.10079 -15.33979,-10.116 -32.70425,-7.14508 -49.76805,-4.08597 -10.61611,2.88457 -14.52762,3.5407 -24.72769,7.98132 -4.08247,1.77731 -7.98353,3.94574 -11.95045,5.96787 -2.38235,1.21439 8.82324,-5.6668 7.19647,-3.54455 -2.85222,3.72098 -7.56192,5.56192 -11.10043,8.6376 -3.60603,3.13438 -6.86813,6.64378 -10.3022,9.96567 -16.88614,18.7315 -28.45828,41.28549 -36.73425,64.96611 -1.63033,4.66496 -2.98697,9.42112 -4.48045,14.13168 -5.58102,20.23302 -8.83465,41.37259 -6.91458,62.39037 0.29904,3.27334 0.89004,6.51342 1.33506,9.77013 2.55594,13.27061 7.0562,26.34556 14.75347,37.56343 1.35507,1.97486 2.90504,3.80866 4.35756,5.713 10.63449,12.9129 25.3191,20.97121 40.05327,28.30027 17.2927,7.96598 34.73018,15.78705 51.05473,25.64973 3.4011,2.05481 6.6934,4.28453 10.0401,6.42679 12.94196,8.87477 24.74727,19.73676 33.61894,32.77407 5.76319,8.46926 6.96879,12.07013 11.25951,21.33317 6.00093,16.7388 11.30869,36.36867 9.64339,54.34849 -0.26978,2.91274 -1.02018,5.76078 -1.53027,8.64116 -2.72519,8.55204 -7.46145,15.46408 -15.36345,20.09405 -9.69985,5.68337 -19.49724,11.27103 -29.73497,15.9161 -6.70533,3.04235 -21.1516,4.52763 -27.85938,5.48979 -33.0754,3.14609 -66.08957,-2.12235 -97.864,-11.20761 -6.76462,-1.9342 -13.41878,-4.23573 -20.12817,-6.35359 -17.44972,-6.01702 -34.70933,-12.7539 -51.21631,-21.05357 -4.17343,-2.09839 -8.20276,-4.47191 -12.30414,-6.70786 0,0 18.327,-11.91267 18.327,-11.91267 l 0,0 c 3.8765,2.32541 7.66286,4.80814 11.62949,6.97623 15.93754,8.71115 32.83079,15.55498 49.95195,21.53869 6.67524,2.0962 13.29197,4.38876 20.02572,6.2886 32.05458,9.04379 65.41099,13.71776 98.6454,9.61033 5.20049,-0.92812 10.45993,-1.57146 15.60146,-2.78435 4.37248,-1.03147 9.38484,-6.74714 12.88969,-3.93673 3.01327,2.41622 -6.32999,4.42785 -9.46671,6.68148 -2.43348,1.74838 5.13038,-3.16031 7.35688,-5.16563 5.26453,-4.74152 5.6144,-7.08444 8.559,-13.31867 0.63666,-2.80255 1.52164,-5.56006 1.90998,-8.40766 2.42921,-17.81247 -2.61025,-37.10954 -8.53438,-53.73146 -4.25563,-9.17404 -5.33004,-12.49695 -11.06528,-20.86201 -8.77581,-12.79984 -20.45281,-23.40525 -33.18669,-32.1361 -3.32416,-2.11126 -6.59573,-4.30767 -9.97247,-6.33376 -16.41534,-9.84944 -33.99158,-17.49367 -51.46738,-25.21682 -15.21688,-7.37189 -30.38885,-15.47996 -41.23062,-28.85588 -3.82993,-5.16552 -5.30667,-6.77578 -8.3916,-12.50471 -5.39985,-10.02792 -8.76422,-20.995 -10.64822,-32.1934 -0.39845,-3.35393 -0.94592,-6.6935 -1.19535,-10.06179 -1.5881,-21.4453 1.87817,-42.9499 7.57118,-63.57042 1.49583,-4.75674 2.8582,-9.55752 4.48748,-14.27022 8.22841,-23.80074 19.56697,-46.61262 36.15964,-65.72944 3.37985,-3.38342 6.5869,-6.94877 10.13956,-10.15026 13.25008,-11.94039 24.09495,-17.23745 41.29112,-26.90532 11.62674,-6.53667 24.41295,-10.65261 37.33856,-13.67733 15.59732,-2.72784 32.64487,-5.66222 47.56766,1.60078 1.77419,0.8635 3.3651,2.06147 5.04766,3.09221 1.29805,1.16357 2.72236,2.20009 3.89417,3.49071 4.6158,5.0838 6.5148,11.8127 5.24461,18.50028 -1.2351,5.50079 -3.71475,10.67657 -6.84192,15.36935 0,0 -23.19434,10.49385 -23.19434,10.49385 z"
       id="path3586"
       style="fill:#000000;fill-opacity:1;fill-rule:nonzero;stroke:none;stroke-width:1px;stroke-linecap:butt;stroke-linejoin:miter;stroke-opacity:1" />
    <path
       d="m 523.29201,638.54291 c -6.16288,-4.69706 -14.49769,-4.06876 -21.70833,-3.07954 -2.08081,0.56889 -4.20762,0.99046 -6.24244,1.70667 -2.26351,0.79671 -8.60067,4.18054 -6.62288,2.82165 4.24342,-2.91554 8.61741,-5.85136 13.48285,-7.53495 2.74733,-0.95066 -4.73453,3.38707 -6.94675,5.27326 -6.38624,5.44509 -7.47587,7.27715 -12.92474,13.72242 -9.38345,12.13747 -15.87088,26.1743 -16.90702,41.62753 -0.16964,2.53001 0.005,5.07138 0.008,7.60707 0.82295,9.69221 4.06125,19.73565 13.01809,24.84133 1.37797,0.78549 2.90344,1.27799 4.35515,1.91699 6.75668,1.50995 13.56219,0.76478 19.85783,-2.1314 1.72524,-0.79366 6.66903,-3.63664 4.99622,-2.7377 -5.15888,2.77228 -10.30303,5.57186 -15.45455,8.3578 13.52757,-10.53051 19.8952,-26.48006 25.51144,-42.12466 3.78579,-12.14266 6.75339,-24.64219 6.73495,-37.41508 -0.99477,-9.84977 -6.95701,-1.33856 22.28008,-12.50674 0.71597,-0.27349 -0.24789,1.51364 -0.32527,2.27615 -0.30504,3.00602 -0.37192,5.60101 -0.51021,8.65416 -0.23195,13.97042 -1.22079,27.91491 -1.28353,41.88726 0.38429,7.88608 -0.68017,17.45132 5.02974,23.74131 2.77067,1.40536 5.90618,1.30429 8.80678,0.27203 0.90139,-0.32078 3.43221,-1.68684 2.60305,-1.20945 -6.09871,3.51133 -12.27995,6.87734 -18.41993,10.316 4.00755,-2.6001 6.9032,-6.26522 9.85967,-9.92963 0,0 22.235,-9.57415 22.235,-9.57415 l 0,0 c -2.68657,3.81413 -5.37445,7.56146 -9.02036,10.54773 -4.80394,2.769 -21.61692,17.244 -32.83153,14.8457 -2.45555,-0.52513 -2.68739,-0.99545 -4.67979,-2.41414 -0.5644,-0.74796 -1.2181,-1.43625 -1.69319,-2.24389 -4.09027,-6.95341 -2.64935,-15.95564 -3.05102,-23.59111 0.16561,-13.87548 1.2268,-27.737 0.71523,-41.62036 -0.0464,-3.46931 -0.0479,-5.0925 -0.15886,-8.40584 -0.0254,-0.75885 -0.73857,-1.85981 -0.10318,-2.27548 21.07661,-13.78846 23.45817,-20.96772 22.71724,-9.95481 -1.03021,13.24496 -4.25656,26.16853 -8.08357,38.86186 -5.375,15.67366 -11.14683,31.90236 -24.02788,43.07821 -8.5531,5.1654 -17.02218,10.47256 -25.6593,15.4962 -8.04455,4.67898 -17.45848,5.96376 -26.34455,3.20777 -1.52972,-0.7865 -3.14998,-1.4175 -4.58916,-2.35952 -9.21548,-6.03199 -12.62118,-16.66064 -13.45748,-27.1223 0.006,-2.65224 -0.16013,-5.31055 0.0194,-7.95671 1.07258,-15.80578 7.2623,-30.32737 16.67285,-42.94533 2.00433,-2.51296 3.87984,-5.13431 6.013,-7.53887 12.00686,-13.5345 30.30613,-24.97597 47.12249,-30.26264 2.16349,-0.68015 4.4112,-1.05569 6.6168,-1.58354 8.41319,-0.80708 16.53963,-0.95374 23.87964,3.86662 0,0 -21.4898,13.59212 -21.4898,13.59212 z"
       id="path3588"
       style="fill:#000000;fill-opacity:1;fill-rule:nonzero;stroke:none;stroke-width:1px;stroke-linecap:butt;stroke-linejoin:miter;stroke-opacity:1" />
    <path
       d="m 592.01412,558.47264 c -1.29103,-7.02229 -1.89763,-14.11501 -2.00816,-21.24618 -0.0418,-13.39697 -1.90006,-8.56528 22.70048,-17.31943 0.90341,-0.32148 -0.0429,1.91737 -0.0772,2.87566 -0.0607,1.69308 -0.13866,3.38549 -0.20799,5.07824 -1.75842,23.11439 -2.9517,46.25032 -3.68618,69.41998 -0.71854,26.28194 -0.61131,52.57596 -0.34967,78.86334 -10e-4,12.38491 0.44401,24.74798 1.91793,37.04801 0.70558,2.16363 0.4757,6.39999 2.86271,7.656 0.63851,-0.49511 0.3748,-0.13942 0.48816,-1.23541 0,0 -20.05013,15.81294 -20.05013,15.81294 l 0,0 c -1.4475,-0.58699 -0.76493,-0.21582 -2.04708,-1.11466 -2.48055,-2.62888 -2.81144,-6.23619 -3.2484,-9.69399 -0.49934,-12.72725 -0.63535,-25.45338 -0.12621,-38.18611 0.40795,-26.45469 0.79198,-52.90976 1.22558,-79.36404 0.43002,-22.70818 1.35055,-45.41594 1.3406,-68.12569 -0.11435,-1.58014 -0.21,-3.16173 -0.34305,-4.7404 -0.0657,-0.77945 -0.90781,-1.9049 -0.25311,-2.33295 28.47967,-18.62036 22.3859,-18.8707 21.825,-5.83359 -0.12271,6.89028 0.2225,13.86654 2.45553,20.45217 0,0 -22.41878,11.98611 -22.41878,11.98611 z"
       id="path3590"
       style="fill:#000000;fill-opacity:1;fill-rule:nonzero;stroke:none;stroke-width:1px;stroke-linecap:butt;stroke-linejoin:miter;stroke-opacity:1" />
    <path
       d="m 533.52192,639.11247 c -1.42007,-3.56833 -3.69266,-7.98191 -0.74285,-11.48603 0.81607,-0.96943 1.93216,-1.64006 2.89825,-2.46008 8.48829,-4.8101 16.86437,-9.82385 25.46489,-14.4303 1.93708,-1.03751 11.66236,-4.44016 13.18092,-4.95956 9.06418,-3.10025 18.23682,-5.77593 27.4498,-8.3901 3.13476,-0.77575 6.26951,-1.5515 9.40427,-2.32725 0,0 -18.28716,13.98236 -18.28716,13.98236 l 0,0 c -3.09516,0.77931 -6.19032,1.55862 -9.28548,2.33793 -9.34922,2.71949 -18.64191,5.50496 -27.7826,8.87576 -2.53886,0.93625 -5.06736,1.90351 -7.56559,2.94332 -2.0522,0.85416 -7.91699,3.99002 -6.08116,2.73669 5.2888,-3.61069 10.99728,-6.56459 16.49592,-9.84688 -6.02022,3.45717 -6.40163,4.11831 -3.13768,10.49112 0,0 -22.01153,12.53302 -22.01153,12.53302 z"
       id="path3592"
       style="fill:#000000;fill-opacity:1;fill-rule:nonzero;stroke:none;stroke-width:1px;stroke-linecap:butt;stroke-linejoin:miter;stroke-opacity:1" />
    <path
       d="m 578.65371,612.5733 c 7.31516,-9.25905 18.69882,-15.25198 29.95109,-18.50815 7.56087,-1.94854 14.32519,-5.86271 21.30925,-9.2122 8.6039,-4.33981 17.36512,-8.44745 26.55896,-11.3765 2.84015,-0.76133 4.91376,-2.05756 7.67474,-0.66023 0,0 -21.00746,14.33323 -21.00746,14.33323 l 0,0 c -2.13259,0.21454 -4.17466,0.92654 -6.22739,1.503 -8.96152,2.9959 -17.52216,7.03165 -25.9333,11.31638 -7.21796,3.58216 -14.39113,7.24835 -22.15216,9.54248 -9.18501,4.02731 -1.29442,0.65835 17.86616,-10.66112 0.46349,-0.27381 -0.99894,0.40777 -1.47111,0.66634 -0.89251,0.48876 -1.73885,1.12043 -2.4182,1.88309 -0.30335,0.34056 -0.53272,0.74044 -0.79908,1.11065 0,0 -23.3515,10.06303 -23.3515,10.06303 z"
       id="path3594"
       style="fill:#000000;fill-opacity:1;fill-rule:nonzero;stroke:none;stroke-width:1px;stroke-linecap:butt;stroke-linejoin:miter;stroke-opacity:1" />
    <path
       d="m 693.47277,617.64961 c -4.89016,10.34821 -7.81781,21.56506 -10.6214,32.62571 -2.97631,12.20461 -5.91908,24.54409 -4.85973,37.16546 1.16837,7.11858 4.38316,9.98795 11.03787,11.97177 2.62265,0.24575 3.42041,0.57069 6.03359,-0.21628 1.14794,-0.34571 4.33957,-2.02564 3.30296,-1.42337 -5.75102,3.34136 -11.40972,6.89805 -17.4644,9.6512 -1.59361,0.72464 2.73501,-2.20617 3.92176,-3.49315 1.43706,-1.55845 2.61223,-3.33944 3.91835,-5.00916 10.08191,-14.77428 15.5444,-31.92828 20.4444,-48.95745 0.55157,-2.13537 1.11972,-4.26654 1.65472,-6.40612 0.39043,-1.56142 0.78125,-3.1233 1.12147,-4.69642 0.20145,-0.93151 0.35892,-1.87244 0.50289,-2.81454 0.0604,-0.39493 -0.24711,-1.01361 0.10961,-1.19353 24.02367,-12.11733 24.8253,-18.25715 22.0289,-7.48381 -3.40491,12.24693 -4.87321,24.85622 -6.37242,37.43828 -0.32539,7.56366 -2.72319,16.19588 0.0606,23.57947 0.19593,0.0841 0.41353,0.37506 0.58779,0.25222 0.3378,-0.23812 0.96488,-1.2743 0.59646,-1.087 -6.90103,3.50843 -13.49265,7.60245 -20.37709,11.14331 -0.81194,0.4176 1.48073,-1.08525 2.10916,-1.7476 1.99157,-2.09909 3.19087,-4.3529 4.72169,-6.81051 5.69299,-10.22566 11.132,-20.59381 16.434,-31.02709 7.77797,-16.01571 4.71986,-9.91047 28.57572,-21.72026 2.05137,4.99503 0.95748,11.1057 0.49312,16.34957 -1.17773,10.18371 -2.39414,20.36441 -3.42286,30.56464 -0.2066,4.44407 -1.01821,8.927 -0.81832,13.38959 -24.40324,12.68592 -26.23482,17.59071 -20.90724,6.16347 2.95925,-6.34734 6.33221,-12.491 9.63744,-18.66092 9.59545,-17.61132 20.51426,-34.43856 33.51702,-49.71709 1.46734,-1.46413 2.93468,-2.92826 4.40203,-4.39238 0,0 22.13847,-9.0974 22.13847,-9.0974 l 0,0 c -1.6145,1.44952 -3.22899,2.89903 -4.84349,4.34855 -13.59287,14.76859 -24.88078,31.37303 -33.97644,49.28174 -2.91551,5.88884 -5.83509,11.74058 -8.3077,17.83191 -0.35842,0.88298 -0.74236,1.75857 -1.0269,2.66805 -0.15258,0.4877 0.1684,1.26119 -0.27941,1.50736 -7.56222,4.15717 -15.48954,7.61255 -23.23432,11.41882 1.13932,-4.52411 0.94766,-9.35544 1.85498,-13.92075 1.27254,-10.11115 2.38939,-20.23203 3.29699,-30.38284 0.12067,-2.4178 0.33659,-4.83308 0.35324,-7.25384 0.0137,-1.98632 -0.43141,-4.02205 -0.38371,-5.99518 10e-4,-0.0576 0.11492,-0.008 0.17238,-0.0114 7.36378,-3.95029 14.79635,-7.77495 22.09136,-11.85085 0.2751,-0.15371 -0.66673,-0.11274 -0.94472,0.0357 -0.45723,0.24413 -0.79715,0.6714 -1.12755,1.07076 -2.08596,2.52134 -3.53738,5.55465 -5.10091,8.39527 -5.53075,10.30159 -11.07588,20.59524 -16.27869,31.06911 -7.62,14.31943 -7.73363,12.04811 -29.11337,22.49248 -1.23005,0.6009 -2.50163,-1.59269 -2.93774,-2.17743 -2.23974,-8.14842 0.0235,-16.95599 0.69045,-25.16046 1.58151,-12.39055 2.99816,-24.79844 5.27815,-37.08789 1.29456,-10.94937 -0.30953,-3.33376 23.2822,-14.33843 0.44695,-0.20849 -0.40411,0.9014 -0.56246,1.36847 -0.34906,1.0296 -0.63217,2.08043 -0.9584,3.11749 -3.45401,10.98002 0.52383,-1.9173 -3.59806,11.54299 -5.29794,16.9166 -10.39815,34.15925 -19.61178,49.44429 -9.42256,14.22445 -10.74728,12.17581 -31.81077,23.52101 -3.19992,1.72354 -7.11909,1.17823 -10.4522,0.42823 -7.2751,-2.7736 -11.14473,-6.65616 -12.14973,-14.66079 -0.83672,-13.34044 2.2875,-25.38981 5.41055,-38.27869 2.56786,-10.8299 5.40828,-21.59783 8.56719,-32.27044 0,0 23.19434,-10.49385 23.19434,-10.49385 z"
       id="path3596"
       style="fill:#000000;fill-opacity:1;fill-rule:nonzero;stroke:none;stroke-width:1px;stroke-linecap:butt;stroke-linejoin:miter;stroke-opacity:1" />
    <path
       d="m 852.49927,634.10145 c -1.1755,-3.53228 -3.31844,-7.98518 -7.73997,-7.76635 -1.04787,0.0519 -2.04764,0.45825 -3.07146,0.68738 -12.28328,6.4303 8.00987,-5.25537 12.46173,-6.91196 2.16933,-0.80724 -3.52365,3.01205 -5.14054,4.66834 -6.0104,6.15686 -10.51687,13.15999 -14.97413,20.45866 -6.31169,11.41117 -11.17743,23.89457 -11.18302,37.12127 -8.7e-4,2.03502 0.29131,4.0596 0.43697,6.0894 1.2862,7.53927 4.46015,15.41903 12.86217,16.97581 1.48568,0.27528 3.01787,0.15677 4.52681,0.23516 1.63461,-0.3233 3.30494,-0.50079 4.90382,-0.9699 1.81764,-0.5333 3.60943,-1.1904 5.30915,-2.02658 1.96528,-0.96683 7.65557,-4.23152 5.64515,-3.36244 -4.86741,2.10415 -8.95544,6.71694 -14.24572,7.08039 -3.03291,0.20836 4.35351,-4.253 6.35811,-6.5385 2.3627,-2.69379 4.48607,-5.58842 6.72911,-8.38263 13.84603,-19.83453 23.62328,-42.19768 30.75541,-65.24668 1.45224,-4.69321 2.6332,-9.46609 3.94979,-14.19914 3.45314,-16.19068 7.52276,-32.74842 7.24562,-49.43233 1.25126,-5.15863 -0.98852,-0.7786 -0.64469,-0.94082 7.15971,-3.37792 13.87635,-7.71324 21.22859,-10.64859 1.05333,-0.42054 -1.27305,1.88352 -1.7957,2.89009 -1.81464,3.49478 -3.34975,7.72634 -4.77013,11.32651 -6.34746,17.85721 -10.31287,36.45006 -13.77818,55.04709 -2.4898,14.82415 -3.8783,29.84027 -3.72236,44.87372 0.38579,7.97445 0.17975,16.97397 5.16688,23.66265 4.88215,4.10237 9.90547,0.58367 14.41424,-2.21416 -32.56942,19.86816 -18.01906,10.918 -11.68696,4.13144 3.54587,-3.80036 6.53504,-8.03385 9.5593,-12.24524 6.03855,-8.5889 11.52965,-17.55644 16.11356,-27.00433 0.4611,-1.85926 2.36197,-4.52473 1.73133,-6.65093 -0.14809,-0.49926 -0.72854,0.74439 -1.09963,1.10973 -0.49284,0.48519 -1.08756,0.85463 -1.63135,1.28194 34.53973,-20.38711 19.28493,-12.34556 12.98287,-5.22315 -3.38515,3.82581 -6.0367,8.0248 -8.66028,12.38526 -5.20313,9.25359 -7.89078,19.54868 -9.14094,30.01988 -0.47485,5.81178 -0.73114,12.02579 1.73791,17.45448 1.73516,2.32994 4.32458,2.23373 6.72666,1.10887 8.75513,-5.22571 -7.7242,4.6263 -18.34757,10.32409 -0.71968,0.386 1.29101,-1.00631 1.87357,-1.57862 2.87756,-2.82695 4.90098,-6.20425 6.97684,-9.6244 6.66423,-11.70729 11.0153,-24.3623 13.94678,-37.45434 0.555,-5.33245 3.37906,-13.68661 0.96513,-18.90734 -6.30489,5.87413 -0.23267,0.16224 21.6081,-10.761 0.33549,-0.16779 -0.74249,0.27403 -0.96812,0.57369 -0.35869,0.47637 -0.51215,1.0801 -0.70262,1.64517 -0.65295,1.93713 -0.97985,3.79222 -1.40823,5.79641 -1.57492,8.03342 -1.35339,16.23378 -0.64872,24.34492 0.76939,6.11721 2.35641,12.28675 6.99799,16.58671 2.26332,1.20586 4.46325,0.88447 6.74099,-0.25569 1.10962,-0.55544 4.23763,-2.57821 3.13953,-2.00033 -17.39176,9.15239 -22.04212,13.62998 -12.04478,5.17119 9.32501,-8.79597 16.79836,-19.22155 23.85462,-29.85237 6.02111,-9.17266 1.53861,-5.05641 24.7465,-12.19148 0.9445,-0.29038 -0.742,1.8327 -1.1634,2.72647 -0.6075,1.28875 -1.2812,2.54529 -1.9218,3.81794 -0.7604,1.64983 -1.5208,3.29967 -2.2812,4.94951 -3.95855,8.88903 -6.81476,18.62661 -5.91997,28.47072 0.13232,1.45566 0.51006,2.87848 0.76509,4.31772 0.5223,1.09911 0.85624,2.30951 1.5669,3.29735 2.97688,4.13795 8.72148,3.8796 12.92978,2.14655 1.5281,-0.62928 2.9086,-1.56963 4.3629,-2.35445 -5.2791,2.85598 -10.2557,6.3609 -15.83733,8.56795 -2.08747,0.82541 3.49603,-2.82162 5.14813,-4.34131 7.2715,-6.68875 12.7324,-14.43571 17.8319,-22.82731 5.7151,-9.96226 8.052,-20.93335 7.2039,-32.31153 -0.2484,-1.23867 -0.4106,-2.49782 -0.7453,-3.716 -0.2899,-1.05504 -1.2908,-3.82248 -2.1976,-4.79696 -0.2003,-0.21519 -1.1115,-0.0834 -0.8531,-0.22347 22.6427,-12.27007 22.7099,-19.28616 21.6997,-8.99622 0.3068,1.68066 0.5143,3.38249 0.9203,5.04198 2.3067,9.42961 5.8296,18.6138 8.7083,27.87228 4.2945,13.81198 3.6172,11.846 7.5112,26.18694 4.8939,20.0816 7.0312,40.79164 5.2103,61.43083 -1.2925,14.65005 -2.7957,18.89707 -6.0954,33.24613 -6.2491,21.16579 -15.17,41.72642 -28.5789,59.40262 -8.1872,10.79264 -10.1802,11.78776 -19.9946,20.66217 -18.26927,11.65543 -38.17857,28.25 -61.22881,24.32237 -8.74258,-1.48969 -10.42969,-3.57034 -17.73582,-8.19229 -11.9084,-10.16719 -17.90122,-24.51629 -24.5185,-38.2716 -5.95868,-12.38629 -4.01875,-8.49326 -10.51032,-20.2208 0,0 19.60206,-11.25055 19.60206,-11.25055 l 0,0 c 6.85851,12.83976 3.91919,7.00665 10.36438,20.4439 6.42961,13.40477 12.51835,27.23518 24.411,36.80852 2.67,1.58853 5.15134,3.54887 8.00999,4.76557 5.86466,2.49612 12.26401,3.27742 18.57531,2.5781 3.45571,-0.3829 8.77932,-5.48305 10.17422,-2.29827 1.40981,3.21882 -11.83904,7.00908 -8.37853,6.39811 4.27031,-0.75395 7.36503,-4.57956 11.04754,-6.86934 3.56084,-3.06135 7.33998,-5.88572 10.68248,-9.18404 19.4019,-19.14526 31.3022,-44.26259 39.1857,-70.00314 3.3088,-14.21026 4.7912,-18.27135 6.0578,-32.78196 1.778,-20.37001 -0.4072,-40.79275 -5.4141,-60.56744 -3.7895,-13.04806 -3.645,-13.22777 -8.0309,-25.7596 -3.2066,-9.1622 -7.0536,-18.05378 -10.3893,-27.16179 -0.6042,-1.64992 -1.1101,-3.33422 -1.6651,-5.00133 -3.1294,-11.46716 -2.3627,-4.46066 21.8348,-16.126 0.5231,-0.25221 0.8371,0.82221 1.1393,1.31816 1.769,2.90316 2.3645,6.41519 2.9044,9.6978 0.743,11.85669 -1.3671,23.45985 -7.1999,33.93623 -5.0427,8.50968 -10.412,16.44176 -17.4526,23.45618 -1.5651,1.55922 -3.0038,3.3047 -4.8523,4.51441 -8.3154,5.4417 -17.028,10.2507 -25.54198,15.37605 -1.6298,0.6702 -3.1914,1.53921 -4.8894,2.01061 -5.45351,1.51402 -11.63974,0.1596 -14.8312,-4.83432 -0.77094,-1.20635 -1.14564,-2.62412 -1.71846,-3.93617 -0.2573,-1.58022 -0.64431,-3.14473 -0.77191,-4.74066 -0.80375,-10.05315 1.7399,-20.16036 5.49962,-29.38767 0.15471,-0.39385 3.91635,-10.27805 4.43926,-10.56498 42.54347,-23.34446 26.74927,-15.80837 20.68977,-8.63115 -7.73999,10.42402 -15.01744,21.24903 -24.12865,30.57298 -11.1408,10.45651 -4.40264,4.69938 -29.3851,19.30804 -4.02314,2.35256 -8.20874,2.75335 -12.01173,-0.0943 -4.72345,-5.03204 -6.6029,-11.557 -7.44727,-18.31512 -0.7538,-8.24443 -1.0423,-16.60397 0.14338,-24.82262 0.37813,-2.65056 0.869,-5.2661 1.29083,-7.90831 0.0966,-0.60495 -0.24339,-1.50799 0.28653,-1.81538 22.79333,-13.22164 17.60136,-18.34804 24.33979,-10.71481 2.20779,6.79284 -0.53761,14.11736 -1.60827,20.8622 -3.02251,13.09203 -7.11353,25.84848 -13.1958,37.87717 -7.32291,14.02425 -14.6863,20.77718 -32.84053,26.18243 -3.59146,0.33887 -6.74856,-0.91954 -8.6234,-4.14769 -2.39003,-6.00342 -2.28297,-12.62474 -1.65541,-18.96536 1.37561,-10.71784 3.88897,-21.31251 8.87872,-30.98016 3.17393,-5.65272 6.51791,-11.21477 10.93013,-16.01552 0.83398,-0.90742 1.6133,-1.91549 2.65669,-2.57143 7.81415,-4.91246 15.8931,-9.39054 23.83964,-14.08581 0.79102,-0.22846 1.54997,-0.70636 2.37305,-0.68539 5.69515,0.14511 2.55425,7.96803 1.33254,10.48732 -4.71941,9.55738 -10.25434,18.66853 -16.24296,27.48307 -3.80982,5.52 -7.58046,10.97055 -12.26364,15.79735 -0.94604,0.97505 -1.75518,2.12962 -2.89504,2.86885 -7.8994,5.12302 -16.09367,9.77637 -24.1405,14.66456 -6.10697,3.25199 -11.25058,4.74392 -16.66235,-0.72517 -0.55349,-0.85747 -1.21005,-1.65659 -1.66045,-2.57242 -3.42516,-6.9645 -3.01359,-15.32612 -3.39934,-22.83093 0.13115,-15.32628 1.68225,-30.62785 4.41812,-45.70902 3.49587,-18.52024 7.45593,-37.0001 12.91464,-55.05232 2.27178,-6.96383 1.59749,-5.07688 3.76785,-11.14901 0.37884,-1.05994 0.21797,-2.54538 1.15137,-3.17446 7.41081,-4.99459 15.23623,-9.40476 23.28274,-13.29316 0.56521,-0.27313 0.95037,0.88887 1.16698,1.47805 0.26851,0.73036 0.15364,1.5487 0.23046,2.32304 -1.58483,17.34381 -5.7826,34.41587 -9.83546,51.3028 -7.88308,27.78303 -17.34947,55.39488 -33.27352,79.73278 -1.57916,2.12338 -9.43669,13.15183 -12.11658,15.10772 -4.22321,3.08228 -26.6856,19.26226 -38.00213,21.64359 -1.75415,0.36913 -3.56642,0.36594 -5.34963,0.54891 -1.66343,-0.24263 -3.37289,-0.26975 -4.99028,-0.72789 -9.0099,-2.55216 -12.43636,-11.16767 -13.80401,-19.59032 -0.14065,-2.15198 -0.42904,-4.29938 -0.42194,-6.45594 0.0448,-13.60718 4.84276,-26.51534 11.20085,-38.35342 12.09934,-20.90239 23.35485,-34.41669 48.76987,-42.39342 1.24388,-0.003 2.50537,-0.21741 3.73165,-0.009 4.86081,0.82657 7.4006,5.46991 9.38096,9.45709 0,0 -22.18123,12.38658 -22.18123,12.38658 z"
       id="path3598"
       style="fill:#000000;fill-opacity:1;fill-rule:nonzero;stroke:none;stroke-width:1px;stroke-linecap:butt;stroke-linejoin:miter;stroke-opacity:1" />
  </g>
</svg>
