<?xml version="1.0" encoding="UTF-8" standalone="no"?>
<svg
   xmlns:dc="http://purl.org/dc/elements/1.1/"
   xmlns:cc="http://creativecommons.org/ns#"
   xmlns:rdf="http://www.w3.org/1999/02/22-rdf-syntax-ns#"
   xmlns:svg="http://www.w3.org/2000/svg"
   xmlns="http://www.w3.org/2000/svg"
   version="1.1"
   id="svg2"
   viewBox="0 0 1440 900.00002"
   height="900"
   width="1440">
  <defs
     id="defs4" />
  <metadata
     id="metadata7">
    <rdf:RDF>
      <cc:Work
         rdf:about="">
        <dc:format>image/svg+xml</dc:format>
        <dc:type
           rdf:resource="http://purl.org/dc/dcmitype/StillImage" />
        <dc:title></dc:title>
      </cc:Work>
    </rdf:RDF>
  </metadata>
  <g
     transform="translate(0,-152.36202)"
     id="layer1">
    <path
       d="m 367.66793,444.70227 c 1.10769,-5.08606 1.33354,-10.30077 1.5771,-15.48316 0.34958,-8.55725 -3.58158,-14.24928 -8.80902,-20.62275 -7.74411,-8.29272 -17.52719,-15.63065 -28.90858,-17.87444 -2.22961,-0.43956 -4.52081,-0.46879 -6.78121,-0.70319 -6.41012,0.59998 -7.61777,0.2808 -13.79849,2.67055 -2.37836,0.91959 -9.07764,4.63536 -6.88653,3.33105 24.24356,-14.43157 12.19163,-6.79816 6.60304,-1.7647 -2.08273,1.87584 -3.9579,3.97003 -5.93684,5.95504 -10.5704,10.99286 -17.1803,24.47855 -21.9763,38.774 -2.15405,7.57501 -3.5669,15.53488 -3.13786,23.44829 0.21654,3.99408 0.84093,6.17462 1.67187,10.0581 1.75328,5.96723 4.40618,11.7128 8.92468,16.10655 2.50341,2.43429 4.5505,3.61891 7.45385,5.58135 7.03587,4.06744 14.65632,6.96033 21.76867,10.88088 5.51406,3.03953 6.60535,3.93384 11.85806,7.44708 11.21669,7.85887 20.30973,18.12528 27.37797,29.81757 1.65716,2.74128 3.11714,5.59701 4.67571,8.39552 7.16869,14.70204 12.71833,30.44491 14.02221,46.8596 0.23198,2.92048 0.1511,5.8574 0.22665,8.7861 -0.42924,7.62686 -1.84011,15.22192 -6.46898,21.53477 -8.02473,10.94414 -30.87012,19.7982 -39.33935,24.20542 -16.34251,3.97235 -32.87627,1.12299 -48.16379,-5.42194 -3.29386,-1.41018 -6.44932,-3.12388 -9.67398,-4.68582 -15.0647,-8.24291 -29.56022,-17.49959 -43.69893,-27.23496 0,0 20.33606,-12.90929 20.33606,-12.90929 l 0,0 c 13.40575,10.22885 27.40546,19.72116 42.33239,27.60882 3.1985,1.49144 6.32772,3.14148 9.59548,4.4743 15.27531,6.23036 31.7053,8.46594 47.7011,3.70277 -4.18781,2.8415 -8.55288,5.43785 -12.56344,8.52448 -2.00616,1.544 4.48836,-2.38136 6.52866,-3.87995 8.39396,-6.16533 11.80629,-15.22781 12.68168,-25.32256 0.004,-2.87691 0.17163,-5.75817 0.0134,-8.63072 -0.89211,-16.1926 -6.28793,-31.71224 -13.50687,-46.09955 -1.56848,-2.72587 -3.03587,-5.51245 -4.70542,-8.17761 -7.09999,-11.33389 -16.28723,-21.2116 -27.37213,-28.7268 -5.24288,-3.41209 -6.26814,-4.24718 -11.77725,-7.16939 -7.32182,-3.88373 -15.17617,-6.6705 -22.32975,-10.88409 -3.39378,-2.29818 -5.04408,-3.15952 -7.90005,-6.0611 -4.69299,-4.76792 -7.48302,-10.9163 -9.37999,-17.2441 -0.91842,-4.17697 -1.54699,-6.26927 -1.80549,-10.58089 -0.49099,-8.18947 0.93214,-16.44573 3.13678,-24.29451 4.80992,-14.61761 11.28847,-28.54158 21.93107,-39.91348 13.87099,-14.65889 17.40394,-15.55431 39.34582,-27.80442 6.64923,-3.71225 14.10046,-5.25726 21.64963,-5.0847 2.32977,0.35649 4.69937,0.51175 6.98933,1.06947 11.65597,2.8388 21.66584,10.45195 29.95518,18.80185 5.79724,6.61191 10.42418,12.67189 10.40805,21.83023 -0.19632,5.19786 -0.53866,10.39304 -1.05562,15.56913 0,0 -22.78854,11.1412 -22.78854,11.1412 z"
       id="path3336"
       style="fill:#000000;fill-opacity:1;fill-rule:nonzero;stroke:none;stroke-width:1px;stroke-linecap:butt;stroke-linejoin:miter;stroke-opacity:1" />
    <path
       d="m 432.70095,545.95949 c -4.74512,6.68495 -7.97101,14.18623 -10.42096,21.96419 -2.70215,9.1418 -3.14725,18.4362 -1.99294,27.83308 1.4938,9.74763 4.53254,19.07783 9.88304,27.37234 3.94799,4.95367 9.7961,7.71474 16.01478,5.28923 1.33544,-0.52087 2.55285,-1.30449 3.82928,-1.95674 -5.52697,3.0305 -10.80649,6.5642 -16.58092,9.09151 -1.86011,0.81412 3.18957,-2.519 4.6899,-3.88714 7.74284,-7.0606 13.67408,-15.47972 19.52405,-24.09743 8.93479,-13.14546 15.67111,-27.44951 20.87295,-42.41944 0.63612,-2.04939 3.8421,-12.58644 2.6549,-14.80208 3.69209,9.55134 -0.27257,1.16385 21.79441,-10.20093 0.60937,-0.31383 -0.73045,1.16461 -1.01623,1.78762 -1.38481,3.01889 -1.96201,6.25273 -2.59511,9.48523 -1.52116,9.04031 -1.5356,18.18878 -0.67821,27.28795 1.15431,5.31155 1.52212,11.64672 5.29569,15.90246 0.29852,0.13571 0.57524,0.337 0.89558,0.40712 1.06724,0.23364 2.47591,-0.73824 3.28407,-1.26569 0.58206,-0.37989 2.29056,-1.56825 1.68199,-1.23245 -6.4149,3.53958 -12.74302,7.23419 -19.11453,10.85129 8.1332,-6.50385 14.87909,-14.47438 21.52258,-22.43464 8.37035,-10.74437 16.3748,-21.76492 24.73883,-32.51409 8.52408,-11.62599 16.55899,-14.94205 31.3576,-22.3556 0.53967,-0.27035 1.10611,0.48357 1.65917,0.72536 0.49362,0.53254 1.07986,0.99228 1.48086,1.59764 2.90506,4.38547 3.05005,14.17563 3.26749,19.23744 0.47062,11.63562 -0.77422,23.22682 -1.82226,34.79467 -0.63619,6.93419 -0.98962,13.88684 -1.11715,20.84759 -0.10505,2.886 0.22367,5.89964 -0.67316,8.69844 -3.59901,-7.79961 0.26669,0.4039 -22.76398,10.55937 -0.48469,0.21372 0.73531,-0.77065 1.02646,-1.21319 0.532,-0.80861 1.00106,-1.65932 1.43321,-2.52541 1.4272,-2.86025 2.92238,-6.64677 4.11073,-9.51319 5.79864,-15.66432 12.00536,-31.15682 19.27859,-46.19791 2.95586,-4.96093 7.41052,-14.5609 12.57359,-17.74506 22.97672,-14.17016 15.11244,-12.57788 27.24175,-14.41627 7.63269,0.37988 10.99239,3.00881 14.77451,9.44818 0.46865,1.39445 1.05291,2.75525 1.40597,4.18336 0.96639,3.90899 1.30608,8.26171 1.56949,12.23713 0.5821,8.78507 0.56588,17.5708 0.51069,26.36888 0.18391,14.97287 -1.47903,29.85875 -2.36411,44.77588 -0.0113,0.9729 -0.0225,1.9458 -0.0338,2.9187 0,0 -22.23927,11.11923 -22.23927,11.11923 l 0,0 c 0.14306,-1.05226 0.28613,-2.10452 0.42919,-3.15678 1.82153,-15.00644 3.97933,-30.0009 3.6295,-45.17646 -0.0312,-11.46507 0.13956,-26.09782 -2.99387,-37.20388 -0.35045,-1.24212 -0.89492,-2.42113 -1.34239,-3.63169 -3.33817,-5.29669 -6.69042,-7.51721 -13.11081,-6.8052 -9.0802,3.07036 -6.00275,2.24453 15.35552,-9.86228 1.16636,-0.66114 -2.25455,1.47156 -3.24974,2.36996 -4.60061,4.15314 -7.67262,9.64705 -10.79156,14.90499 -7.5182,14.70218 -13.78697,29.97632 -18.79094,45.72128 -0.70939,2.03505 -17.22819,54.86169 -28.4831,24.26692 -0.0428,-1.19885 0.41887,-1.9021 0.71333,-3.06464 0.46082,-1.81938 0.30941,-1.51572 0.36681,-3.56362 0.0206,-0.73502 0.0494,-1.46978 0.0741,-2.20467 0.33598,-7.13752 0.95341,-14.25953 1.77369,-21.35757 1.22435,-11.43551 2.64422,-22.91576 1.93852,-34.43984 -0.23041,-3.5511 -0.72779,-14.16763 -3.17994,-17.01464 -0.18397,-0.2136 -0.50768,-0.24525 -0.76152,-0.36787 -7.71511,3.64189 -2.59503,1.25223 19.39386,-11.52236 0.6211,-0.36083 -1.20875,0.77879 -1.78222,1.21132 -2.94002,2.21748 -5.34653,4.98012 -7.63213,7.85141 -8.70682,10.6255 -16.89128,21.65224 -25.07029,32.68633 -6.3344,7.89546 -12.75649,15.71785 -20.23992,22.56912 -7.86158,4.71206 -15.67975,9.49731 -23.58474,14.13618 -1.67784,0.9846 -3.6596,1.60023 -5.58163,0.98501 -1.12925,-0.36146 -1.59079,-0.97896 -2.42759,-1.76404 -3.62956,-5.05836 -4.21554,-11.56213 -5.29369,-17.53091 -0.87673,-9.23962 -0.98192,-18.52829 0.17913,-27.75547 1.27381,-8.92435 8.32028,-42.63353 26.27197,-24.29851 1.56185,4.43733 -2.08478,12.91265 -3.24262,17.07165 -5.64193,15.08333 -12.2658,29.74258 -21.21789,43.19884 -4.39427,6.74932 -8.73648,13.40842 -14.04492,19.49178 -1.14272,1.30953 -7.22193,7.87009 -8.94776,8.98134 -8.21227,5.28783 -16.79861,9.97079 -25.19792,14.95618 -1.436,0.52686 -2.81825,1.23377 -4.30802,1.58056 -7.09689,1.65201 -13.39472,-2.28774 -17.467,-7.79605 -5.31959,-8.67225 -8.58932,-18.30086 -10.32391,-28.32442 -1.46089,-10.19232 -1.10728,-18.76976 1.58322,-28.7769 2.17115,-7.71357 5.07288,-15.18371 9.19409,-22.08749 0,0 23.20367,-10.28421 23.20367,-10.28421 z"
       id="path3338"
       style="fill:#000000;fill-opacity:1;fill-rule:nonzero;stroke:none;stroke-width:1px;stroke-linecap:butt;stroke-linejoin:miter;stroke-opacity:1" />
    <path
       d="m 727.87048,566.19312 c 1.76064,-3.03378 3.72979,-6.4366 3.64099,-10.04818 -1.18629,-1.79026 -4.87125,-0.21482 -6.30652,0.45659 -1.17374,0.54907 -4.55667,2.46956 -3.43148,1.82684 5.55559,-3.17342 11.14924,-6.27974 16.72387,-9.4196 -11.60338,7.5301 -20.80137,17.81645 -29.01204,28.8046 -5.79482,8.47221 -11.17165,17.75738 -12.14721,28.19224 -0.14853,1.58873 -0.0689,3.19057 -0.10337,4.78585 1.24871,9.60439 4.43541,13.59213 12.50356,18.44066 6.07887,2.90429 13.10505,5.84916 20.02919,5.05946 1.45449,-0.16588 2.85193,-0.6624 4.2779,-0.9936 13.14609,-6.64818 -7.80872,5.30848 -12.20606,6.8845 -2.04571,0.73318 3.196,-2.96353 4.58393,-4.63568 6.21366,-7.48604 9.8713,-16.40882 13.79651,-25.19076 10.51101,-25.83693 15.78341,-53.31879 19.54875,-80.83266 2.33976,-19.42826 3.00668,-39.00213 2.82417,-58.55434 -0.0962,-3.88927 -0.10599,-7.78813 -0.4376,-11.66768 -0.0401,-0.4687 -0.0766,-0.93952 -0.16496,-1.40156 -0.013,-0.0679 -0.19584,-0.12912 -0.13338,-0.15867 7.50952,-3.55316 15.07573,-6.98528 22.6136,-10.47792 -2.06557,10.0732 -1.99518,20.50971 -2.28032,30.75666 -0.14068,16.95041 1.19671,33.85822 2.0007,50.77842 0.47096,15.99726 0.0743,31.99303 -1.10407,47.94942 -0.33194,8.82125 -2.11258,17.51944 -2.5122,26.32497 0.0522,0.36112 -0.17469,6.28751 1.26577,4.70193 0,0 -21.12134,14.24737 -21.12134,14.24737 l 0,0 c -2.43016,-1.99291 -2.73839,-4.69741 -2.44006,-7.75176 0.63375,-9.03747 3.10883,-17.84098 3.54003,-26.91875 1.60832,-15.90967 2.03848,-31.90955 1.69564,-47.89525 -0.78926,-16.90719 -2.15843,-33.78614 -2.45688,-50.71337 0.0565,-10.15826 0.12817,-20.31849 0.47118,-30.47189 28.48265,-15.24601 23.49726,-20.71484 22.86667,-10.31759 -0.24661,4.0662 -0.32741,8.14006 -0.50478,12.20933 -0.84756,19.9377 -1.90731,39.8878 -4.4779,59.6915 -3.89373,27.47797 -9.18499,54.89145 -18.658,81.05676 -3.52689,8.77668 -6.79181,17.58909 -12.29853,25.37144 -7.92509,11.2001 -21.10063,17.48564 -33.9363,21.73448 -1.54333,0.19779 -3.07466,0.54902 -4.62998,0.59339 -7.31673,0.2087 -14.47355,-2.78554 -20.83658,-6.04564 -8.41995,-5.43676 -12.26427,-10.56658 -13.51562,-20.76226 0.0505,-4.52164 -0.15441,-6.06992 0.83646,-10.595 1.91757,-8.75705 6.50615,-16.64588 11.42103,-24.01833 7.94834,-11.06128 16.84336,-21.43652 28.02162,-29.39027 8.39556,-4.89183 16.70874,-9.92788 25.1867,-14.6755 2.81738,-1.57772 6.70467,-2.88105 9.93229,-1.68141 2.01442,0.74872 2.04817,1.38526 3.00911,3.01835 0.54499,4.07958 -1.23192,7.77905 -2.87082,11.4487 0,0 -23.20367,10.28421 -23.20367,10.28421 z"
       id="path3340"
       style="fill:#000000;fill-opacity:1;fill-rule:nonzero;stroke:none;stroke-width:1px;stroke-linecap:butt;stroke-linejoin:miter;stroke-opacity:1" />
    <path
       d="m 839.16613,556.09762 c 1.23588,-3.18883 2.80612,-6.23578 3.93365,-9.4662 0.64475,-1.75513 0.84773,-3.14571 -1.16405,-3.70983 -6.14728,-1.21416 -11.99797,1.91691 -17.32771,4.55341 5.47544,-3.1174 10.89155,-6.3414 16.42632,-9.3522 1.64913,-0.8971 -3.20924,1.95197 -4.76203,3.00706 -6.69375,4.54824 -12.2613,10.05411 -17.68765,16.0103 -5.86362,7.32954 -11.62089,15.3442 -13.83896,24.63874 -0.41367,1.73342 -0.5742,3.51763 -0.86131,5.27645 -1.00935,10.7284 2.40104,19.11061 8.78123,27.47708 4.26595,4.48084 9.77568,7.98491 16.21687,7.44261 1.20837,-0.10173 2.38052,-0.4638 3.57078,-0.69569 1.1962,-0.46948 2.43673,-0.83876 3.58859,-1.40842 1.17812,-0.58265 4.52951,-2.66715 3.37652,-2.03622 -5.90319,3.23034 -11.61734,6.81325 -17.62959,9.83578 -1.28401,0.64551 2.30462,-1.72284 3.38251,-2.67338 2.86904,-2.53008 3.58241,-3.59218 6.04052,-6.50389 6.22534,-8.0366 9.62823,-17.56407 12.49736,-27.18798 2.74049,-9.96994 4.27622,-20.19352 5.76885,-30.40623 0.81339,-6.93282 2.03758,-13.80852 2.75593,-20.75288 1.02959,-12.61012 -1.89232,-3.6095 23.17083,-15.63035 -0.30958,4.07696 0.12504,8.14342 0.35073,12.2134 0.34294,10.62679 0.84848,21.25383 1.83912,31.84118 1.08921,7.18382 1.77004,14.57362 4.94902,21.19486 1.83564,3.03121 4.54344,3.95854 7.95082,3.82835 0.66539,-0.15261 1.35436,-0.22521 1.99618,-0.45784 1.92967,-0.6994 6.5577,-3.70791 4.56291,-2.61762 -6.0829,3.32472 -11.90751,7.13564 -18.14067,10.16932 -1.36905,0.66631 2.343,-1.9499 3.43424,-3.01172 1.23478,-1.20148 2.35703,-2.51343 3.53555,-3.77015 8.30517,-9.39038 13.6467,-20.72701 18.79043,-32.02599 2.40705,-5.46182 4.49901,-11.07805 5.91385,-16.88216 0.33817,-1.9192 0.2825,-0.98584 0.46713,-1.07283 7.60653,-3.58383 15.12714,-7.34727 22.6907,-11.02091 -0.72854,4.84767 -1.33834,9.68936 -1.70489,14.58074 -0.36206,7.91039 0.39527,15.7448 3.2678,23.14658 3.6814,6.50189 11.10161,5.65932 17.48095,4.58596 1.59231,-0.46843 3.22069,-0.82823 4.77693,-1.40529 1.70617,-0.63264 3.36244,-1.40027 4.98909,-2.21593 1.68949,-0.84717 6.60791,-3.67255 4.94881,-2.76729 -5.28184,2.88193 -10.3554,6.17323 -15.81725,8.69744 -1.73106,0.80001 3.06819,-2.26868 4.53739,-3.48443 1.38949,-1.1498 2.68845,-2.40482 4.03267,-3.60723 5.79524,-5.97094 9.66282,-11.47864 9.14991,-20.02297 -0.35264,-2.0907 -0.7642,-4.42403 -2.05823,-6.194 -0.2169,-0.29668 -0.50195,-0.57297 -0.84246,-0.71125 -0.21157,-0.0859 -0.88048,0.20032 -0.67862,0.0936 7.16927,-3.79139 14.41097,-7.44421 21.61646,-11.16631 -0.36036,0.46562 -0.89058,0.83975 -1.08109,1.39686 -1.59864,4.67481 -0.61068,11.06068 -0.36434,15.77278 0.31719,6.06726 0.69969,12.13095 1.03271,18.19737 0.71802,14.97415 1.40382,29.97973 0.73798,44.97145 -0.48444,10.90747 -0.94498,13.17959 -2.20604,24.05049 -2.82492,18.05892 -6.26765,36.31617 -13.33453,53.27958 -1.16069,2.78613 -2.57849,5.45805 -3.86773,8.18708 -4.78614,8.81913 -11.01127,17.07523 -19.94843,22.04682 -26.54295,14.7654 -17.43407,12.15348 -33.55437,15.64683 -12.21959,1.18419 -24.54998,-1.41772 -35.66429,-6.55685 -2.24186,-1.0366 -4.37051,-2.30229 -6.55576,-3.45344 -12.24213,-6.93097 -21.34137,-17.51849 -29.88935,-28.43429 -2.6251,-3.50565 -5.04198,-7.18649 -7.8132,-10.58355 -0.51379,-0.62982 -2.12712,-2.51406 -2.55743,-2.4065 -0.30971,0.0774 1.9e-4,0.63846 2.9e-4,0.95769 21.98143,-12.48687 21.74385,-20.53251 21.55555,-10.88377 0,0 -22.32719,11.77951 -22.32719,11.77951 l 0,0 c -2.66973,-10.36168 -1.07189,-1.59419 21.37117,-16.06457 4.41803,4.1848 6.64949,10.20814 10.40667,14.92543 8.12354,10.83045 17.02936,21.07327 29.0566,27.72489 2.12508,1.08945 4.19159,2.30164 6.37524,3.26835 10.96396,4.85381 23.05861,7.05753 34.96074,5.28779 12.52517,-3.31525 7.15903,-2.62616 -7.53626,7.42272 -1.89915,1.29867 4.05022,-2.20977 5.91409,-3.55858 6.37369,-4.61239 11.19089,-10.77997 15.08723,-17.54671 1.37504,-2.68977 2.88496,-5.31476 4.12512,-8.06932 7.54938,-16.76818 11.25297,-35.0166 14.17474,-53.06002 1.25252,-10.60148 1.75714,-13.1734 2.21881,-23.81477 0.64415,-14.84738 -0.12061,-29.70971 -1.17949,-44.51718 -0.8178,-9.69424 -0.66744,-8.61967 -1.66319,-17.84622 -0.66876,-6.19666 -1.67656,-12.4389 -1.10074,-18.68869 18.45058,-9.8463 24.29919,-20.74681 27.65507,-2.90908 0.85173,9.40921 -2.5318,15.47132 -8.83156,22.31892 -11.18522,10.53076 -17.70728,13.19745 -33.93269,22.6711 -4.80288,2.8043 -10.02214,4.85138 -15.48563,5.90132 -8.02769,0.88266 -15.37665,0.80408 -19.57304,-7.19025 -2.77696,-7.7745 -3.71905,-15.84943 -3.64145,-24.09641 0.16132,-4.77434 0.48459,-9.55184 0.89535,-14.28843 5.74165,-3.13103 25.81911,-21.23584 22.59741,-10.16315 -1.93347,6.05997 -4.29855,11.98357 -6.92052,17.77608 -5.27626,11.30643 -10.45144,22.79904 -18.31591,32.60286 -10.19399,11.98355 -10.5715,9.86853 -30.56968,21.66813 -2.36888,1.39772 -4.8768,2.19041 -7.63494,2.08545 -4.14419,-0.62252 -7.44046,-2.26508 -9.39046,-6.16417 -2.87784,-7.13668 -3.43937,-14.7853 -4.47233,-22.35775 -0.93103,-10.51808 -1.59744,-21.05862 -2.38107,-31.58755 -0.42501,-3.9762 -1.12069,-7.92406 -1.17742,-11.92774 26.12714,-13.54675 23.89135,-19.72293 22.06708,-7.14599 -1.0831,7.03815 -2.41342,14.03611 -3.33869,21.09733 -1.59771,10.32136 -3.18225,20.65693 -5.79871,30.78164 -2.78214,9.79276 -5.89897,19.55442 -11.85606,27.9586 -2.06823,2.66492 -3.39604,4.56078 -5.80973,6.93379 -7.29353,7.17061 -22.54545,14.45431 -27.65569,17.42552 -1.1602,0.67456 -2.38494,1.24762 -3.6443,1.71141 -1.26755,0.4668 -2.60566,0.71338 -3.9085,1.07007 -1.30183,0.0973 -2.60046,0.32527 -3.90551,0.29202 -6.95636,-0.1772 -12.68043,-4.31571 -17.11364,-9.34433 -6.69444,-9.14494 -10.20925,-17.69965 -9.49362,-29.26487 0.62999,-4.81402 0.58819,-6.45902 2.22886,-11.08086 2.63346,-7.41862 7.33485,-13.98295 12.04941,-20.18461 4.00997,-4.59367 8.02759,-9.05789 12.71511,-12.9866 10.36861,-8.69015 23.22732,-14.19191 34.54598,-21.21028 6.01698,-2.71812 12.79653,-5.74459 19.40712,-3.24628 2.48936,1.64009 3.80683,3.8451 2.91482,6.87658 -1.11452,3.26051 -2.72136,6.29958 -3.8164,9.54607 0,0 -23.0594,10.66464 -23.0594,10.66464 z"
       id="path3344"
       style="fill:#000000;fill-opacity:1;fill-rule:nonzero;stroke:none;stroke-width:1px;stroke-linecap:butt;stroke-linejoin:miter;stroke-opacity:1" />
  </g>
</svg>
