<?xml version="1.0" encoding="UTF-8" standalone="no"?>
<svg
   xmlns:dc="http://purl.org/dc/elements/1.1/"
   xmlns:cc="http://creativecommons.org/ns#"
   xmlns:rdf="http://www.w3.org/1999/02/22-rdf-syntax-ns#"
   xmlns:svg="http://www.w3.org/2000/svg"
   xmlns="http://www.w3.org/2000/svg"
   version="1.1"
   id="svg2"
   viewBox="0 0 1440 900"
   height="900"
   width="1440">
  <defs
     id="defs4" />
  <metadata
     id="metadata7">
    <rdf:RDF>
      <cc:Work
         rdf:about="">
        <dc:format>image/svg+xml</dc:format>
        <dc:type
           rdf:resource="http://purl.org/dc/dcmitype/StillImage" />
        <dc:title></dc:title>
      </cc:Work>
    </rdf:RDF>
  </metadata>
  <g
     transform="translate(0,-152.36202)"
     id="layer1">
    <path
       d="m 153.81115,484.72323 c -0.36471,0.17855 -0.71928,0.37952 -1.09414,0.53565 -0.0965,0.0402 -2.60501,0.92544 -2.72184,0.98732 -0.37933,0.20089 -1.40839,0.97796 -1.03515,0.76597 19.63183,-11.15008 27.43838,-16.58281 19.94244,-11.39927 -7.51761,4.3258 -15.02489,8.66961 -22.55284,12.9774 -0.47549,0.27209 -1.03453,0.48612 -1.54887,0.68022 -0.0877,0.0331 -0.34015,0.14877 -0.26565,0.0919 6.93485,-5.28982 13.90521,-10.53292 20.85781,-15.79938 0.30781,-0.29118 1.29387,-1.07925 0.92343,-0.87355 -6.56922,3.64784 -12.97274,7.58962 -19.55262,11.2182 -1.12504,0.62042 2.12728,-1.44162 3.17434,-2.18613 5.7138,-4.06284 11.27299,-8.33654 16.84012,-12.59576 22.8993,-17.45649 45.20699,-35.66486 67.34394,-54.07239 22.18526,-18.47199 44.60105,-36.68373 68.21797,-53.30255 14.73369,-9.98086 30.25023,-18.72018 45.43975,-27.97306 9.65944,-5.98668 19.10817,-12.30633 28.62283,-18.52012 9.5988,-6.31347 1.42789,-1.00195 25.27094,-14.70253 0,0 -19.6508,15.77197 -19.6508,15.77197 l 0,0 c 20.6351,-12.04107 26.27147,-15.64617 17.38775,-10.02765 -9.93593,6.29435 -19.77085,12.7392 -29.72116,19.00862 -15.46751,9.42587 -31.27437,18.29918 -46.43863,28.21534 -24.20161,16.58744 -47.14988,34.87523 -69.66645,53.67353 -21.51048,17.99368 -43.10614,35.88989 -65.12543,53.26023 -12.93917,10.28095 -27.9984,23.37474 -43.41204,28.53468 6.53308,-5.17929 13.05799,-10.36889 19.59922,-15.53787 0.45818,-0.36206 2.04213,-1.13378 1.53656,-0.8415 -7.00156,4.04771 -14.00553,8.09126 -21.0083,12.1369 9.76237,-4.86495 18.49537,-11.60842 28.51691,-15.92841 0,0 -19.88009,15.90219 -19.88009,15.90219 z"
       id="path3494"
       style="fill:#000000;fill-opacity:1;fill-rule:nonzero;stroke:none;stroke-width:1px;stroke-linecap:butt;stroke-linejoin:miter;stroke-opacity:1" />
    <path
       d="m 264.67197,405.68008 c 0.45788,-3.47491 1.00672,-6.93291 1.3538,-10.42264 0.51981,-9.77461 -30.50001,7.12404 22.95099,-11.55356 0.72495,-0.25332 -0.071,1.53424 -0.10643,2.30136 -0.27356,5.917 -0.1297,2.63301 -0.42116,9.90175 -0.89388,26.12008 -1.15449,52.25665 -1.4229,78.38899 -0.36876,38.10336 -0.40401,76.20817 -0.10827,114.31191 0.27425,22.504 1.03243,45.00961 -0.0495,67.50092 -0.17451,4.72453 -0.70572,9.43234 -0.89401,14.15542 0,0 -22.87854,11.14054 -22.87854,11.14054 l 0,0 c 1.53097,-4.69628 1.50379,-9.8211 2.42254,-14.63611 2.61682,-22.8338 2.82506,-45.81984 2.99254,-68.78198 0.29431,-38.06875 0.2665,-76.13856 -0.0981,-114.20698 -0.26058,-25.64789 -0.49452,-51.3014 -1.41923,-76.93586 -0.15806,-3.47145 -0.2485,-6.05317 -0.48091,-9.40242 -0.0463,-0.66746 -0.74603,-1.6522 -0.17423,-1.9996 7.36831,-4.47673 15.3238,-7.90656 22.9857,-11.85984 -0.53632,-0.36094 -0.29998,-0.35852 -0.5428,0.45626 -0.55219,3.35659 -1.00425,6.72633 -1.45341,10.098 0,0 -22.65606,11.54384 -22.65606,11.54384 z"
       id="path3496"
       style="fill:#000000;fill-opacity:1;fill-rule:nonzero;stroke:none;stroke-width:1px;stroke-linecap:butt;stroke-linejoin:miter;stroke-opacity:1" />
    <path
       d="m 348.72308,458.38678 c 0.28982,-5.40825 0.40838,-10.84728 0.008,-16.25323 -5.2811,-6.77369 -1.9314,-2.3463 22.60225,-10.80335 0.89725,-0.30929 -0.18183,1.89049 -0.21709,2.83889 -0.0593,1.59476 -0.0644,3.19126 -0.0665,4.78712 -0.007,5.12973 0.0704,10.25923 0.0974,15.3889 0.0951,26.97327 -0.84981,53.93982 -1.65805,80.89785 -0.88243,25.06701 -0.94554,50.16224 0.39023,75.21184 0.19776,2.71889 0.34209,5.44219 0.59328,8.15667 0.33845,3.65751 0.91665,8.05088 1.58496,11.72653 0.0327,0.18005 0.91463,4.86138 1.37162,5.24673 0.32858,0.27707 -0.0315,-0.85904 -0.0472,-1.28856 -7.00974,3.45945 -13.50136,8.27227 -21.02923,10.37834 -1.62237,0.45389 0.97157,-3.22895 1.34583,-4.87153 0.58295,-2.55855 1.0393,-5.14448 1.52389,-7.72348 2.17002,-11.54899 4.21258,-23.11916 6.41976,-34.66181 2.22734,-11.42913 4.21075,-22.94799 7.50695,-34.13629 1.22311,-4.15158 3.18414,-10.07889 5.5065,-13.95565 0.85338,-1.42456 2.06014,-2.60505 3.09021,-3.90757 8.19922,-4.69896 16.05296,-10.06014 24.59767,-14.09689 1.29786,-0.61314 2.89931,0.0688 4.28229,0.45323 7.22178,2.00726 12.15207,8.28659 16.49396,13.89529 8.62088,12.28917 11.28327,26.68764 12.89269,41.28507 1.39539,14.06579 1.96526,28.2421 5.56777,41.96584 0.83035,1.89742 1.77863,6.84835 4.90615,6.80871 1.71797,-0.0218 5.9702,-3.39935 4.44055,-2.617 -5.94562,3.04092 -11.74432,6.36093 -17.61648,9.5414 4.39245,-3.78787 8.03317,-8.32132 11.77697,-12.72104 0,0 22.06813,-9.36925 22.06813,-9.36925 l 0,0 c -3.62158,4.3909 -7.14116,8.88512 -11.13266,12.95321 -8.15089,5.0354 -16.18592,10.26336 -24.45266,15.10621 -1.94237,1.13789 -4.01666,1.62208 -6.13715,0.66151 -3.38906,-1.53522 -4.25348,-5.73663 -5.20315,-8.85318 -2.9738,-14.03687 -3.55608,-28.34908 -4.98269,-42.59509 -1.68639,-14.10049 -4.20535,-28.07623 -12.75217,-39.84598 -3.42896,-4.18207 -6.77192,-8.31515 -11.8489,-10.60673 -1.25069,-0.56452 -2.58521,-1.01689 -3.95001,-1.15909 -1.18814,-0.12379 -4.51621,1.09743 -3.56391,0.37623 5.32617,-4.03363 11.35207,-7.04866 17.02811,-10.57299 -1.25188,1.17145 -2.71449,2.15218 -3.75563,3.51436 -2.80303,3.66736 -5.22989,9.80115 -6.65951,13.9444 -3.83612,11.11768 -6.08203,22.71906 -8.22283,34.25154 -1.9787,11.29671 -3.81254,22.5685 -5.14618,33.96207 -0.29161,2.49123 -0.51138,4.99039 -0.78757,7.48338 -0.17879,1.61387 0.65563,3.78034 -0.57734,4.83692 -6.84787,5.86819 -15.02397,9.97979 -22.53596,14.96969 -0.39361,-0.48932 -0.94193,-0.88719 -1.18083,-1.46796 -0.27686,-0.67306 -0.22605,-1.43825 -0.31193,-2.16095 -0.14855,-1.25006 -0.27402,-2.50286 -0.39124,-3.75625 -0.6414,-6.8588 -1.11064,-13.73751 -1.1731,-20.62889 -0.53789,-25.35542 0.0466,-50.71708 0.94785,-76.05824 0.72719,-26.62604 1.34091,-53.29879 0.0401,-79.91652 -0.38801,-6.16076 -0.52007,-9.00518 -1.04511,-14.87492 -1.3427,-15.01081 -2.7609,-6.39707 22.061,-19.82756 0.11213,-0.0607 -0.1016,0.23386 -0.15241,0.35079 -0.37257,5.40479 -0.30944,10.83974 0.008,16.24552 0,0 -22.55384,11.49176 -22.55384,11.49176 z"
       id="path3498"
       style="fill:#000000;fill-opacity:1;fill-rule:nonzero;stroke:none;stroke-width:1px;stroke-linecap:butt;stroke-linejoin:miter;stroke-opacity:1" />
    <path
       d="m 506.26275,542.69382 c -0.47686,0.74728 -1.04383,1.44418 -1.43056,2.24183 -1.52202,3.13921 -2.34027,6.2981 -3.16763,9.69264 -1.85022,7.59117 -2.87354,15.16062 -3.67714,22.92054 -0.65651,10.12756 -1.0988,20.46492 0.69257,30.51794 0.80749,4.53155 1.39641,5.64319 2.89881,9.77381 2.47395,5.04988 6.71877,8.72716 12.54222,6.43115 1.19855,-0.47255 2.28562,-1.18966 3.42842,-1.78448 -5.71386,3.11072 -11.16116,6.77106 -17.14159,9.33217 -1.68111,0.71993 2.79745,-2.37112 4.0337,-3.71875 1.45635,-1.58756 2.77821,-3.30028 4.02011,-5.06067 4.72273,-6.69444 8.00703,-14.02098 11.26956,-21.48886 5.25799,-12.93547 8.41755,-26.56496 10.22006,-40.37675 0.3158,-10.83432 -5.37448,-3.13464 22.38789,-13.11903 0.79971,-0.2876 -0.58663,1.60009 -0.77631,2.42851 -0.71166,3.10811 -0.96388,6.2973 -1.32189,9.45491 -1.45208,11.93615 -1.67903,23.9871 -0.77188,35.96817 0.52007,2.56307 0.5244,5.84006 2.21147,8.06183 0.18216,0.23989 0.49337,0.57467 0.77425,0.46591 0.34083,-0.13197 0.84426,-1.13121 0.51809,-0.96632 -6.9862,3.53159 -13.77831,7.43468 -20.66746,11.15203 5.46307,-6.79237 8.29533,-15.37324 11.34792,-23.43818 3.12492,-8.09762 5.63931,-16.42648 8.90084,-24.4705 5.72126,-12.0948 13.30673,-12.193 27.69023,-20.23963 4.1647,2.59347 3.86254,8.80526 4.20239,13.11807 0.74402,12.99347 0.076,25.99103 -0.40493,38.97831 -0.62538,11.05401 -1.3686,22.10233 -1.6921,33.17061 -1.78031,-1.7702 0.94095,3.87769 -0.0272,3.33281 -0.48624,-0.27366 -0.10702,-1.77879 -0.61836,-1.5555 -7.43611,3.24719 -14.03068,8.29265 -21.58607,11.25169 -1.04236,0.40824 0.70567,-2.12521 1.02375,-3.19852 0.51636,-1.74238 0.98616,-3.49823 1.47924,-5.24734 5.21256,-20.16077 10.94501,-40.1435 17.62042,-59.86897 4.83054,-13.08569 2.34672,-6.81962 7.39382,-18.82097 0,0 20.95748,-9.60202 20.95748,-9.60202 l 0,0 c -5.57332,12.03101 -2.87492,5.74221 -8.02241,18.89747 -6.69796,19.26113 -12.26837,38.85127 -16.09806,58.90054 -0.32549,1.66679 -0.67681,3.32874 -0.97647,5.00036 -0.18789,1.04818 0.36644,2.51912 -0.4859,3.15749 -7.06182,5.28907 -21.41644,21.01395 -23.37815,12.4119 -0.26444,-1.15959 1.2179,-2.36329 0.49234,-3.53395 1.25658,-11.19179 2.26472,-22.41591 2.87164,-33.66252 0.39886,-12.73343 0.89796,-25.50236 -0.39817,-38.20576 -0.0116,-0.0958 -0.95992,-10.92623 -2.48311,-8.94786 6.98897,-4.05753 13.99812,-8.08051 20.96693,-12.17257 0.75302,-0.44217 -1.55189,0.84616 -2.17994,1.45288 -1.52695,1.47507 -2.53303,3.27595 -3.72256,5.02006 -3.82397,7.94561 -6.49571,16.38607 -9.59651,24.62569 -2.97192,8.15723 -5.95558,16.32837 -9.92998,24.06197 -19.92198,11.60301 -25.75604,22.29858 -27.8258,2.05451 -0.47549,-12.11228 -0.21348,-24.24683 0.75329,-36.33198 0.25924,-5.60156 0.16946,-4.34854 0.50519,-9.34925 0.0592,-0.88138 -0.55783,-2.17177 0.18913,-2.64333 24.5582,-15.50331 24.34358,-20.11898 22.74561,-8.38257 -2.80355,14.04166 -6.08689,28.02651 -11.16964,41.44428 -3.03143,7.51902 -6.12237,14.83355 -10.43298,21.73311 -1.231,1.97032 -5.09322,7.80868 -7.33066,9.28917 -8.04741,5.32486 -16.55557,9.91831 -24.83335,14.87746 -1.32632,0.45412 -2.60221,1.09799 -3.97897,1.36237 -6.85527,1.31639 -11.53498,-3.77029 -14.03116,-9.482 -1.41233,-4.44081 -1.98259,-5.66229 -2.6903,-10.48075 -1.51284,-10.3003 -1.02523,-20.81418 -0.48159,-31.15997 0.94381,-11.88555 2.27526,-23.90036 5.88267,-35.31478 0,0 23.30882,-9.95841 23.30882,-9.95841 z"
       id="path3500"
       style="fill:#000000;fill-opacity:1;fill-rule:nonzero;stroke:none;stroke-width:1px;stroke-linecap:butt;stroke-linejoin:miter;stroke-opacity:1" />
    <path
       d="m 655.52911,541.10865 c -0.18151,-5.59947 -8.81658,-2.39946 -11.70623,-1.51886 -1.48853,0.81147 -5.96131,3.23258 -4.46559,2.43443 5.33015,-2.84433 10.31506,-6.44387 15.96904,-8.57301 1.92244,-0.72394 -3.12201,2.69237 -4.46975,4.24268 -5.15028,5.92439 -5.87849,9.73984 -7.15709,17.18652 -0.24309,16.52467 9.32398,27.63952 19.75125,39.23041 6.02833,6.76417 12.7135,13.81111 14.73865,22.98223 1.28688,5.82782 0.49991,7.21018 -0.4176,13.0377 -0.93771,2.26488 -1.67209,4.62509 -2.81314,6.79466 -9.71775,18.47701 -31.59585,27.07603 -48.55388,36.4662 -4.29602,1.37255 -7.23219,2.69794 -11.76148,2.75592 -1.6233,0.0208 -3.21858,-0.42769 -4.82787,-0.64153 0,0 19.91119,-14.16456 19.91119,-14.16456 l 0,0 c 1.42344,0.0902 2.84756,0.37065 4.27034,0.27052 4.34753,-0.30595 6.82073,-1.54312 10.95652,-3.01789 -4.62589,2.85954 -9.27394,5.68353 -13.87767,8.57862 -2.14708,1.3502 4.42345,-2.49776 6.50727,-3.94369 8.2721,-5.73985 15.04306,-13.15156 18.69308,-22.62607 1.08367,-5.2415 1.90744,-6.61063 0.92019,-11.94665 -1.65246,-8.93149 -8.24007,-15.73011 -13.89337,-22.35931 -10.68774,-12.13467 -20.57441,-23.87832 -20.98166,-40.8991 0.70386,-6.23237 0.29617,-7.45977 3.03152,-13.11859 7.07183,-14.62998 23.91086,-21.0956 37.87857,-27.55853 5.63417,-1.23867 13.37675,-2.73727 14.95377,4.84406 0,0 -22.65606,11.54384 -22.65606,11.54384 z"
       id="path3502"
       style="fill:#000000;fill-opacity:1;fill-rule:nonzero;stroke:none;stroke-width:1px;stroke-linecap:butt;stroke-linejoin:miter;stroke-opacity:1" />
    <path
       d="m 754.95768,568.53722 c -6.9e-4,-5.6219 -1.74182,-7.80216 -7.11976,-9.20815 -1.00189,0.0502 -2.02177,-0.0449 -3.00568,0.15063 -3.86072,0.76726 -8.76094,3.95137 -7.41832,3.20209 5.42641,-3.02838 10.60361,-6.5832 16.33575,-8.9831 1.9192,-0.80353 -3.22232,2.64305 -4.69741,4.1104 -1.60877,1.60035 -3.02456,3.38364 -4.53684,5.07546 -10.2616,12.89988 -13.7268,28.72784 -15.93298,44.6651 -0.7091,10.80372 -1.90602,22.33301 2.55938,32.51626 1.02814,1.70231 2.42742,3.21853 4.65127,2.57778 0.74498,-0.21465 2.73597,-1.45965 2.05865,-1.0824 -20.29341,11.30301 -24.25752,14.81973 -15.37054,7.65365 1.28715,-1.41706 2.66767,-2.75461 3.86146,-4.25117 11.05006,-13.85266 19.11837,-32.54883 26.56188,-48.49342 11.65628,-25.84999 22.88875,-51.91463 32.54672,-78.58367 2.03025,-6.03642 4.0163,-12.1026 5.65194,-18.26118 0.18055,-0.67982 0.42987,-1.35479 0.47069,-2.05698 0.009,-0.15218 -0.47409,-0.25619 -0.33287,-0.31359 7.45749,-3.03077 15.01713,-5.80381 22.5257,-8.70572 -5.61117,11.92504 -10.64935,24.08069 -14.98781,36.5227 -5.83569,16.63878 -8.8393,33.93264 -10.53569,51.42043 -0.6696,10.66445 -0.44713,21.62468 4.15225,31.44421 3.45179,4.80964 6.93854,5.39241 12.21597,3.24404 0,0 -19.76282,15.22298 -19.76282,15.22298 l 0,0 c -6.86632,1.28692 -10.2228,-0.47937 -14.01766,-6.34289 -4.25327,-10.54369 -4.49401,-21.93374 -3.53334,-33.15641 1.79708,-17.62011 4.72842,-35.0764 10.37049,-51.92547 3.93419,-12.12388 8.70111,-23.91079 13.25333,-35.81031 7.94779,-4.06465 15.93989,-8.04379 23.84335,-12.19397 0.14915,-0.0783 -0.40888,-0.20382 -0.50144,-0.0631 -0.46367,0.70506 -0.66927,1.54946 -0.98951,2.3302 -2.58407,6.29996 -4.73064,12.75931 -7.24495,19.0876 -10.63435,26.59069 -22.22958,52.78479 -33.42961,79.13938 -7.90817,18.02033 -15.39981,36.72021 -27.42032,52.47397 -9.05907,9.26028 -4.31936,4.96649 -27.16632,16.84345 -3.50771,1.82348 -7.20934,-1.86305 -8.54056,-4.62592 -3.96851,-10.96819 -2.66403,-22.85365 -1.90399,-34.26547 2.23664,-16.0909 5.25998,-32.26739 15.01808,-45.72392 11.50864,-14.11793 12.20849,-12.3525 33.94794,-24.69467 3.70558,-2.10378 7.75457,-2.90181 11.92292,-2.12704 6.2886,2.52789 8.03249,5.04296 9.15671,11.64435 0,0 -22.65606,11.54384 -22.65606,11.54384 z"
       id="path3504"
       style="fill:#000000;fill-opacity:1;fill-rule:nonzero;stroke:none;stroke-width:1px;stroke-linecap:butt;stroke-linejoin:miter;stroke-opacity:1" />
    <path
       d="m 833.91072,570.02555 c 0.2541,-1.39264 2.04021,-6.24458 -0.56283,-6.22069 -6.95595,4.3974 -17.54657,8.53701 15.66675,-8.68779 1.22012,-0.63277 -2.22874,1.6144 -3.27156,2.50973 -3.26236,2.80098 -4.13623,4.03302 -7.05637,7.33472 -7.5567,9.01771 -13.34705,19.20142 -17.61442,30.12582 -3.01663,8.31665 -3.7803,16.98245 -1.7554,25.5768 1.43865,4.44638 3.95098,7.66164 8.43756,9.03967 1.38709,-0.0298 2.22769,0.0796 3.55903,-0.49533 0.64402,-0.27813 2.40283,-1.44821 1.7901,-1.10662 -6.44607,3.59366 -12.75428,7.43932 -19.29182,10.86376 -0.91849,0.48112 1.65231,-1.26453 2.37869,-2.00446 0.92334,-0.94055 1.70209,-2.01286 2.55313,-3.0193 7.53971,-10.57648 11.8136,-23.03466 15.6416,-35.32967 2.46582,-8.55155 3.9025,-17.34535 4.57313,-26.20758 0.49783,-11.53158 -2.23548,-2.2402 22.72824,-14.39713 -0.10865,4.69529 -0.93903,9.32567 -1.38391,13.99698 -0.62536,8.45854 -1.49403,16.89115 -1.9737,25.36089 -0.145,5.97636 0.40226,11.93568 2.58334,17.52719 1.3972,3.35986 3.14719,7.07964 6.77349,8.39139 0.50404,-0.04 1.02486,0.015 1.51213,-0.12004 1.48694,-0.412 5.31612,-3.12918 3.94514,-2.42125 -6.20309,3.20308 -11.98516,7.24653 -18.39386,10.01542 -1.48262,0.64057 2.28366,-2.28846 3.33909,-3.51099 1.24284,-1.4396 2.36597,-2.97835 3.54896,-4.46752 7.53076,-10.80162 13.72979,-22.45826 19.45271,-34.29494 0.6709,-1.43385 5.77405,-12.23224 4.29021,-13.53282 -2.53388,8.74609 -12.41423,6.88214 19.40142,-9.41114 0.70841,-0.36279 -1.05103,1.20284 -1.48304,1.87129 -1.24455,1.92569 -1.77741,3.47619 -2.66368,5.59291 -2.5595,6.68521 -2.05322,13.75132 -1.12368,20.69302 1.33328,7.46249 4.51979,14.45943 9.13822,20.44016 5.11834,4.61158 7.42228,6.19156 13.86717,3.15344 -34.16792,20.26664 -17.60585,10.97833 -11.28617,3.72509 4.78231,-5.48875 8.6397,-11.5647 12.48435,-17.71863 8.01918,-13.62329 13.87463,-28.30777 18.60661,-43.34766 0.67645,-2.88298 1.68436,-5.9811 1.24603,-9.00541 -0.0336,-0.23151 -0.24869,-0.86135 -0.30184,-0.63355 -0.0947,0.40589 -0.21627,1.41857 0.16034,1.24004 7.26082,-3.44206 14.16436,-7.5921 21.24655,-11.38814 -2.9062,5.504 -2.29273,12.365 -2.11107,18.37956 0.23024,7.62293 0.67807,13.14041 1.19442,20.88567 1.35195,19.11895 3.477,38.21744 3.55092,57.40604 0.0513,13.30873 -0.44344,17.05489 -1.34964,30.25663 -2.26602,22.55614 -8.98463,44.30193 -21.28854,63.43588 -2.18023,3.3905 -4.68591,6.56031 -7.02887,9.84047 -6.98643,8.20064 -14.47274,16.36994 -23.87455,21.89167 -8.5177,5.00249 -22.87375,15.88799 -35.53659,16.99613 -2.41598,0.21143 -4.8426,-0.27541 -7.26389,-0.41312 -2.18923,-0.99872 -4.56756,-1.65838 -6.56769,-2.99616 -11.53069,-7.71221 -19.63197,-28.13998 -25.34937,-40.37314 -5.09995,-10.66967 -10.02828,-21.63138 -17.26174,-31.08366 -1.16368,-1.52065 -2.50469,-2.89701 -3.75703,-4.34551 0,0 20.66728,-12.36159 20.66728,-12.36159 l 0,0 c 8.4046,11.18953 14.40534,23.86592 20.11939,36.59509 5.5947,11.752 13.72056,31.49076 25.37958,38.35586 1.85527,1.09244 4.02254,1.53656 6.03381,2.30483 2.23905,0.008 4.49843,0.32621 6.71715,0.0251 7.75324,-1.05233 16.7845,-7.12079 -4.49165,5.67171 -2.90027,1.74382 5.77032,-3.55974 8.45497,-5.6201 7.38276,-5.66598 9.85433,-8.92138 16.23545,-15.785 2.41805,-3.23415 5.00332,-6.34977 7.25415,-9.70244 12.63711,-18.82335 19.71174,-40.36159 22.30638,-62.80218 1.04526,-13.59854 1.53065,-16.3653 1.48034,-30.07694 -0.0698,-19.01798 -2.28036,-37.94006 -4.4152,-56.8097 -0.51544,-4.53542 -1.78537,-15.4974 -2.26389,-20.44416 -0.61091,-6.31532 -1.39513,-12.84123 -0.0676,-19.11835 7.59264,-4.5309 14.9029,-9.57258 22.77792,-13.5927 0.8983,-0.45857 1.72321,2.667 1.74387,2.86549 0.35512,3.41131 -0.96492,6.94407 -1.78589,10.15426 -5.48278,15.05317 -11.28819,30.01944 -19.01362,44.09415 -3.5714,6.15674 -7.2093,12.17538 -11.57388,17.81507 -0.90509,1.1695 -4.87613,6.0462 -6.41847,7.00344 -7.93734,4.92627 -16.19523,9.31624 -24.29284,13.97436 -1.00034,0.24299 -1.97713,0.62233 -3.00101,0.72897 -5.09807,0.53097 -9.26912,-3.14897 -12.49931,-6.572 -4.60708,-6.45919 -8.14364,-13.7116 -9.65869,-21.547 -1.12172,-7.2364 -1.85115,-14.63985 0.42753,-21.74716 0.3622,-1.05219 2.52304,-7.71514 3.35618,-8.28816 7.37048,-5.06919 15.08403,-9.63381 22.84951,-14.0743 0.48506,-0.27737 1.15151,-0.1437 1.67552,0.0503 0.55686,0.20614 0.9387,0.72747 1.40804,1.0912 0.23047,0.46545 0.57144,0.891 0.69139,1.39634 0.99344,4.18513 -3.58298,11.25296 -5.0165,14.89015 -6.03504,11.78745 -12.27399,23.48372 -19.30335,34.71628 -9.67638,13.51943 -8.72266,10.21688 -30.04698,23.1841 -2.33641,1.42075 -4.66467,1.67488 -7.18168,0.71219 -3.70321,-2.38771 -6.06047,-5.9239 -7.52831,-10.06001 -2.29676,-5.96441 -2.85585,-12.31662 -2.67556,-18.68196 0.52625,-8.44939 1.45404,-16.86987 1.83085,-25.3248 0.22456,-4.53718 0.7927,-9.04774 0.8073,-13.57966 22.13948,-12.85534 23.72059,-21.26042 22.38564,-8.22792 -1.15777,9.19601 -3.20935,18.27194 -5.56407,27.22709 -3.77715,12.26388 -7.80449,24.69717 -14.47938,35.73184 -7.52038,11.0573 -10.93345,10.00813 -27.95987,19.42996 -1.98541,1.09866 -4.53525,0.61106 -6.57229,0.0949 -4.83488,-2.29013 -7.75827,-6.20896 -9.26391,-11.35639 -2.07831,-9.08301 -1.47425,-18.29997 1.6237,-27.1276 4.13267,-11.13031 9.85645,-21.49035 17.22142,-30.83785 10.5162,-13.17549 15.14666,-14.13708 33.62683,-24.31914 0.73427,-0.40456 1.60147,-0.57947 2.43915,-0.61325 0.71336,-0.0288 1.39876,0.28686 2.09814,0.4303 3.39273,2.70853 2.94269,5.07044 2.21878,9.0174 0,0 -22.87439,11.09192 -22.87439,11.09192 z"
       id="path3506"
       style="fill:#000000;fill-opacity:1;fill-rule:nonzero;stroke:none;stroke-width:1px;stroke-linecap:butt;stroke-linejoin:miter;stroke-opacity:1" />
  </g>
</svg>
