<?xml version="1.0" encoding="UTF-8" standalone="no"?>
<svg
   xmlns:dc="http://purl.org/dc/elements/1.1/"
   xmlns:cc="http://creativecommons.org/ns#"
   xmlns:rdf="http://www.w3.org/1999/02/22-rdf-syntax-ns#"
   xmlns:svg="http://www.w3.org/2000/svg"
   xmlns="http://www.w3.org/2000/svg"
   version="1.1"
   id="svg2"
   viewBox="0 0 1440 900.00002"
   height="900"
   width="1440">
  <defs
     id="defs4" />
  <metadata
     id="metadata7">
    <rdf:RDF>
      <cc:Work
         rdf:about="">
        <dc:format>image/svg+xml</dc:format>
        <dc:type
           rdf:resource="http://purl.org/dc/dcmitype/StillImage" />
        <dc:title></dc:title>
      </cc:Work>
    </rdf:RDF>
  </metadata>
  <g
     transform="translate(0,-152.36202)"
     id="layer1">
    <path
       d="m 110.65371,472.00188 c 10.81373,-10.84953 23.86199,-19.35145 36.48978,-27.92186 29.25457,-19.01665 58.25358,-38.40465 86.78774,-58.48641 29.21959,-20.72371 58.54111,-41.30367 87.85249,-61.89733 24.22373,-16.25038 48.20066,-33.99394 75.57577,-44.61774 0,0 -18.80432,14.7641 -18.80432,14.7641 l 0,0 c -1.91802,0.75725 -3.87181,1.42951 -5.75407,2.27173 -2.43603,1.09001 -9.21619,5.25829 -7.19078,3.52046 3.07795,-2.64093 9.10368,-10.12532 10.41619,-6.28792 1.31537,3.84574 -6.95841,4.20446 -10.37672,6.40332 -3.68073,2.36766 -20.87141,13.98284 -24.10818,16.16416 -29.65008,20.6555 -59.29669,41.31872 -88.75675,62.24448 -27.9527,19.78381 -56.32188,38.95341 -84.92145,57.78984 -11.73453,8.02861 -23.57468,16.10938 -33.8582,25.99013 0,0 -23.3515,10.06304 -23.3515,10.06304 z"
       id="path3428"
       style="fill:#000000;fill-opacity:1;fill-rule:nonzero;stroke:none;stroke-width:1px;stroke-linecap:butt;stroke-linejoin:miter;stroke-opacity:1" />
    <path
       d="m 237.15698,390.47264 c -0.41392,-3.28723 -0.94091,-6.55735 -1.35225,-9.84462 -0.0446,-0.24295 -0.31472,-0.89713 -0.13388,-0.72886 0.26987,0.2511 0.29376,0.67619 0.44063,1.01428 7.3655,-3.84238 14.41633,-8.36021 22.09649,-11.52716 0.77093,-0.3179 -0.11795,1.66371 -0.19113,2.49439 -0.41757,4.74051 -0.50285,5.15918 -1.09286,10.35631 -2.1477,21.75277 -4.59766,43.47278 -7.08573,65.18869 -2.00534,17.40459 -4.18375,34.82396 -4.7675,52.35065 -0.3603,10.81745 -0.13191,13.66147 0.1401,24.43588 0.96956,24.07698 3.98179,47.99059 8.24351,71.68688 2.08522,9.36579 3.96081,18.82754 7.14285,27.90518 1.4418,4.11314 3.11671,8.29877 5.69106,11.87094 0.87005,1.20729 2.0273,2.17905 3.04095,3.26857 2.61397,1.26163 3.10711,2.25585 5.96248,0.88503 1.09259,-0.52453 3.99191,-2.71373 2.89321,-2.20212 -5.87403,2.73519 -11.08872,6.99317 -17.28091,8.90164 -2.02508,0.62414 2.82835,-3.16187 4.11667,-4.84436 1.55331,-2.02855 2.93271,-4.18453 4.39906,-6.27679 11.60495,-18.72277 20.59828,-38.92209 29.75349,-58.91533 8.82275,-19.23595 17.46456,-38.56594 24.93598,-58.37219 1.56557,-4.56456 3.60763,-8.97187 4.95196,-13.61444 0.14179,-0.48967 -0.0713,-1.82256 0.31977,-1.49554 0.69932,0.58478 0.63728,1.7082 0.95592,2.5623 6.83325,-3.7101 13.6665,-7.4202 20.49975,-11.13031 -7.55736,12.92193 -11.21656,27.61922 -14.86839,42.00299 -3.27016,14.35299 -5.98124,28.97933 -4.55691,43.72298 0.85578,3.97402 2.00203,10.3601 7.05203,11.06673 0.66023,0.0924 1.33276,-0.0388 1.99914,-0.0582 0.73391,-0.18521 1.47922,-0.32997 2.20171,-0.55563 1.87621,-0.58601 7.03204,-3.51077 5.31497,-2.55408 -5.87286,3.27212 -11.56075,6.89324 -17.58961,9.86816 -1.5544,0.76701 2.81599,-2.03546 4.0925,-3.20807 1.52135,-1.39751 2.85305,-2.98836 4.27957,-4.48254 11.50722,-13.75228 18.81402,-30.24543 25.53576,-46.69947 2.48282,-6.05339 4.68657,-12.21265 6.89746,-18.3681 0.36773,-1.0238 0.72768,-2.05056 1.11436,-3.06735 0.20166,-0.53029 0.15706,-1.29252 0.65029,-1.57288 7.44112,-4.22971 15.21451,-7.84613 22.82177,-11.76919 0.25679,1.18733 0.65204,2.35298 0.77036,3.56199 0.23065,2.35697 -0.14569,9.042 -0.23765,10.93753 -0.39454,8.13194 -0.78902,16.22055 -0.89434,24.36329 0.12203,7.06621 0.2964,14.30414 2.59607,21.07549 0.50933,1.49971 1.30742,2.88527 1.96113,4.32791 0,0 -21.21856,11.89294 -21.21856,11.89294 l 0,0 c -0.62503,-1.61353 -1.39609,-3.17785 -1.87508,-4.84059 -2.04359,-7.09401 -2.1012,-14.56814 -2.265,-21.87751 0.0335,-11.81052 0.7169,-23.66284 -0.17659,-35.44329 7.19803,-4.13493 14.28737,-8.46511 21.59409,-12.40478 0.55006,-0.29658 -0.89638,0.88815 -1.22292,1.42097 -0.62144,1.01404 -1.11125,2.10475 -1.60177,3.18821 -2.81126,6.20947 -5.12872,12.64192 -7.87819,18.87768 -6.84391,16.3093 -13.72902,32.86498 -24.45656,47.0831 -10.31784,12.51465 -13.13514,11.66494 -32.23004,22.60746 -2.67097,1.53062 -5.60742,2.23043 -8.6614,2.1388 -0.80677,-0.19975 -1.65129,-0.28402 -2.42032,-0.59926 -5.4759,-2.24469 -6.94325,-8.4808 -7.68393,-13.7213 -0.98067,-15.19539 2.01552,-30.15796 5.2932,-44.94411 3.42141,-14.16486 6.86796,-28.39558 12.68655,-41.81082 7.57014,-4.91395 14.66959,-10.64319 22.71041,-14.74185 3.4357,-1.75128 1.26008,3.38792 0.93883,4.19974 -1.89468,4.78804 -4.1798,9.40967 -6.08389,14.19423 -8.23493,19.84913 -17.09005,39.42933 -25.99836,58.98373 -8.91785,19.81632 -17.72918,39.75461 -28.38769,58.71113 -10.54175,16.66284 -7.97931,12.45871 -32.07506,27.1336 -3.94999,2.40564 -7.31859,1.21743 -10.55477,-1.56456 -0.9918,-1.29481 -2.12854,-2.4905 -2.97541,-3.88442 -7.10454,-11.69385 -8.72067,-28.09328 -11.89444,-41.15155 -3.99201,-23.86743 -7.06577,-47.89983 -8.17949,-72.09213 -0.26371,-10.78638 -0.50466,-13.82855 -0.095,-24.65948 0.66506,-17.58436 2.95117,-35.05441 4.86473,-52.53 2.212,-21.36085 4.39984,-42.74562 5.25106,-64.21299 0.22827,-4.24681 0.40601,-5.79106 0.32238,-9.75903 -0.0168,-0.79488 -0.79176,-1.90858 -0.15178,-2.38032 5.34256,-3.93808 21.21644,-22.66607 22.7435,-11.94735 0.20716,3.21747 0.54358,6.44361 1.28047,9.58702 0,0 -22.41878,11.98611 -22.41878,11.98611 z"
       id="path3430"
       style="fill:#000000;fill-opacity:1;fill-rule:nonzero;stroke:none;stroke-width:1px;stroke-linecap:butt;stroke-linejoin:miter;stroke-opacity:1" />
    <path
       d="m 412.59695,560.15737 c 0.60057,-0.002 1.20224,0.0302 1.8017,-0.006 2.38361,-0.14497 3.32889,-0.26692 5.63641,-1.32233 1.31582,-0.60182 5.06799,-2.79511 3.80388,-2.09111 -18.19531,10.13324 -20.86578,12.47957 -10.47965,4.79583 12.12607,-10.27761 22.68474,-22.22679 32.54967,-34.64575 2.75166,-3.8632 6.08454,-7.54373 7.9159,-11.99598 0.22614,-0.54977 1.10598,-2.74323 0.17876,-3.53185 -0.39541,-0.33631 -1.00777,-0.24939 -1.51165,-0.37408 -3.99689,-0.41071 -7.77507,0.86812 -11.37665,2.50931 -1.75201,0.79836 -6.79583,3.62178 -5.11747,2.67837 17.85388,-10.03559 19.10834,-11.63961 9.82512,-3.9182 -8.53225,8.16348 -14.2465,18.70428 -15.48937,30.54486 -0.23752,2.26282 -0.13621,4.54845 -0.20432,6.82268 0.43507,12.53805 4.29737,22.29244 11.88525,32.096 5.19376,6.02181 11.80164,10.38813 18.48368,14.55765 4.54382,2.81201 9.35709,4.42098 14.65033,4.84214 1.95734,0.18409 3.918,-0.30446 5.56459,-1.3913 0.42308,-0.27926 1.6627,-1.15513 1.22034,-0.90754 -6.72591,3.76447 -13.38755,7.64265 -20.08133,11.46397 6.95303,-7.2863 12.55006,-15.83643 18.32873,-24.06345 12.2342,-17.39872 22.86942,-35.79364 32.27685,-54.84848 1.95051,-4.5386 4.28299,-9.41696 5.56169,-14.25017 0.28235,-1.06721 1.40127,-5.56193 0.11664,-7.14909 -0.94271,-1.16471 -2.99146,0.54455 -4.32344,1.23091 5.64712,-3.08166 11.04429,-6.67373 16.94135,-9.24496 1.90191,-0.82927 -3.32361,2.50369 -4.80716,3.95422 -5.14425,5.02977 -9.16507,11.38354 -11.41537,18.22683 -0.77335,2.3518 -1.13064,4.82056 -1.69595,7.23084 -0.0826,2.38949 -0.42303,4.78399 -0.2477,7.16846 0.90648,12.3281 7.44082,19.27926 16.20334,26.91989 7.11581,5.81338 15.21414,10.9596 20.27274,18.86631 0.86112,1.34596 1.47114,2.83695 2.20671,4.25542 2.64324,8.1543 0.73018,15.17334 -5.97013,20.74723 -1.47379,1.22603 -3.18644,2.13246 -4.77966,3.19869 -8.84849,4.60413 -17.41921,9.78681 -26.54546,13.81239 -2.01808,0.89017 -4.36409,0.74327 -6.56918,0.79444 -7.21738,0.1675 -14.25946,-1.83831 -20.4005,-5.61539 -2.04859,-1.25999 -3.8448,-2.89046 -5.7672,-4.33569 0,0 20.0674,-12.71658 20.0674,-12.71658 l 0,0 c 1.83268,1.32106 3.54101,2.8345 5.49805,3.96319 5.98061,3.44922 12.829,4.97607 19.70522,4.37085 2.15414,-0.1896 7.90868,-2.73637 6.37279,-1.21409 -4.1979,4.16071 -9.91927,6.42989 -14.8789,9.64484 1.60865,-0.88313 3.31492,-1.60802 4.82596,-2.64938 6.41232,-4.41919 9.1852,-10.34062 7.21079,-17.90527 -0.63508,-1.3065 -1.14634,-2.68083 -1.90524,-3.91951 -4.8031,-7.83964 -12.91893,-12.76838 -19.6968,-18.65931 -3.39647,-3.0736 -6.42132,-5.52602 -9.20758,-9.22426 -5.96926,-7.92307 -8.44885,-17.41671 -7.63897,-27.23914 0.49845,-2.53111 0.77976,-5.11484 1.49534,-7.59333 2.02394,-7.01008 5.8135,-13.62285 10.63855,-19.0704 1.34095,-1.51396 2.64453,-3.14599 4.35621,-4.22318 8.26178,-5.19926 16.9537,-9.6814 25.43055,-14.52211 1.34152,-0.0302 2.74467,-0.49355 4.02457,-0.0905 8.33595,2.62507 -2.74122,22.06388 -4.28798,25.83483 -9.57492,18.79267 -19.8213,37.22103 -31.46457,54.8283 -5.37701,8.10782 -10.78755,16.20321 -16.58861,24.0158 -7.63702,4.63653 -15.2384,9.33228 -22.91106,13.90959 -2.31226,1.37944 -5.11757,1.2739 -7.67287,0.92208 -5.37748,-0.94597 -10.34574,-2.9533 -14.91137,-5.98629 -6.82106,-4.40886 -13.44555,-9.14247 -18.58554,-15.53255 -7.60777,-10.39857 -11.63163,-20.72947 -12.17634,-33.75463 0.0178,-2.37986 -0.13876,-4.76741 0.0533,-7.13956 0.98328,-12.14547 6.38057,-23.28568 14.77217,-32.01196 12.05672,-11.06561 4.84891,-5.08315 31.03049,-20.06846 5.66226,-3.24086 12.22587,-5.57255 18.70697,-3.83737 0.8416,0.63503 1.88647,1.06598 2.52481,1.90508 3.8079,5.00546 -5.88306,14.78203 -8.27518,18.34185 -10.02618,12.35934 -20.50142,24.38896 -32.26753,35.14344 -12.34458,9.87968 -5.86471,5.0902 -30.74314,19.29401 -4.00536,2.28678 -8.44118,3.23286 -13.00058,2.69287 0,0 20.85761,-14.5337 20.85761,-14.5337 z"
       id="path3432"
       style="fill:#000000;fill-opacity:1;fill-rule:nonzero;stroke:none;stroke-width:1px;stroke-linecap:butt;stroke-linejoin:miter;stroke-opacity:1" />
    <path
       d="m 641.64213,551.81573 c -2.53495,-5.32002 -8.21766,-7.05505 -13.59008,-7.9831 -4.24414,0.10597 -4.798,-0.18419 -8.99267,1.22896 -1.67072,0.56284 -6.36869,2.9978 -4.8611,2.08388 5.06268,-3.06909 10.07872,-6.32478 15.55749,-8.56822 2.14431,-0.87805 -3.70863,2.79691 -5.3807,4.40103 -1.86254,1.78686 -3.46225,3.82891 -5.19338,5.74336 -8.24211,11.014 -13.55529,24.1399 -14.23201,37.96638 -0.11282,2.30511 0.0623,4.61531 0.0934,6.92297 0.82638,5.29731 2.57229,13.45032 9.63361,13.14333 3.94344,-0.17144 5.90432,-1.99387 9.23482,-3.97141 -4.73907,2.2787 -8.96791,7.14595 -14.21723,6.8361 -3.36367,-0.19854 4.79963,-4.73776 7.03379,-7.26011 12.2373,-13.81578 21.45868,-29.67869 30.55877,-45.63187 13.59596,-24.72835 23.43894,-51.21237 32.71201,-77.78682 0.91341,-2.75099 1.80685,-5.5087 2.74022,-8.25298 0.0991,-0.29139 3.71854,-11.36098 4.66971,-11.89583 23.83302,-13.40135 21.32879,-19.76583 23.6616,-7.74338 -1.78231,16.82458 -5.08497,33.47409 -8.22744,50.09115 -3.81959,19.64728 -7.62877,39.28038 -9.87537,59.17775 -0.75165,11.15412 -2.66527,22.59722 -0.0853,33.63502 2.3596,6.43875 6.39922,4.31917 11.2635,1.94759 10.77688,-6.61573 -5.73399,3.5818 -13.97547,7.61672 -1.58379,0.77541 2.82189,-2.117 4.19085,-3.22857 4.78802,-3.8878 9.3575,-8.06968 13.96844,-12.16263 6.46117,-5.94338 12.82606,-12.04739 17.84521,-19.29971 2.84202,-4.10653 3.96376,-6.43137 6.32792,-10.7697 1.59951,-3.95904 6.66608,-14.96243 3.48006,-19.10555 -0.32277,-0.41974 -0.90186,-0.55508 -1.35279,-0.83261 0.11891,-0.90599 -5.24627,2.82657 -3.92829,2.13192 28.90637,-15.23522 21.2108,-13.87543 14.93119,-6.80134 -2.97307,3.34923 -4.52906,6.06051 -6.9988,9.84068 -4.57222,7.83834 -8.48915,16.15198 -10.77903,24.96639 -1.23308,4.74647 -1.3654,6.98796 -1.97608,11.79757 -0.25195,6.22574 -0.39043,14.15016 4.78188,18.69731 0.63098,0.55471 1.42306,0.89345 2.13459,1.34018 3.50818,1.42018 7.14424,0.96742 10.54522,-0.57479 1.05099,-0.47658 4.05097,-2.2126 3.04623,-1.64496 -6.01191,3.39652 -12.04547,6.75457 -18.06821,10.13186 8.23513,-5.63798 13.02162,-14.28164 16.79474,-23.26535 4.02749,-11.18895 5.37362,-22.8924 5.56947,-34.70108 -0.28105,-2.42149 0.0275,-11.7542 -3.11416,-12.83471 0.13803,9.40376 -0.35724,0.2755 21.17545,-10.77486 0.51255,-0.26303 -0.55738,1.01197 -0.76911,1.54775 -0.27679,0.70045 -0.4978,1.42318 -0.69242,2.15076 -0.56789,2.12303 -0.68715,3.30461 -1.0291,5.50615 -0.79024,5.35389 -0.31345,10.7584 0.81079,16.01979 1.11361,3.75856 2.86796,7.37811 5.42872,10.35877 1.59936,1.34622 3.49207,2.81087 5.67655,1.97148 0.65061,-0.24999 2.45852,-1.31422 1.85054,-0.97342 -6.34308,3.55554 -12.70428,7.07864 -19.05642,10.61797 8.2292,-6.14749 13.07684,-15.51915 17.85725,-24.37171 2.34464,-4.53085 5.07307,-9.21622 6.9346,-13.83664 7.56448,-3.35252 14.94346,-7.15953 22.69344,-10.05757 0.67278,-0.25158 -0.66797,1.27303 -0.95845,1.92996 -0.44815,1.01345 -0.85894,2.04342 -1.25601,3.07795 -1.71946,4.4799 -3.13446,9.02018 -4.45566,13.63021 -2.25414,8.92268 -3.85477,18.03114 -2.35695,27.18414 1.72709,6.37291 6.85786,9.22002 12.73959,11.12946 1.04779,0.22681 2.08148,0.53315 3.14337,0.68042 2.2809,0.31632 3.78188,0.29111 5.99294,-0.38964 1.02234,-0.31477 3.88384,-1.7818 2.9556,-1.25015 -20.8094,11.91868 -23.06758,14.57858 -15.14367,7.03941 9.85359,-12.887 13.72337,-29.02686 17.28559,-44.55262 1.5775,-7.69763 2.68585,-15.48314 3.42076,-23.3042 0.33648,-3.58088 0.41684,-7.15506 1.07826,-10.69317 7.73378,-3.81085 14.91861,-9.03873 23.20134,-11.43253 1.45991,-0.42194 1.20191,2.79805 1.64726,4.25099 0.68589,2.23765 1.21148,4.52223 1.74071,6.80202 2.85099,12.28118 5.1672,24.6845 7.49084,37.07221 4.23957,24.67263 7.36879,49.61004 7.69311,74.675 0.22863,17.66925 -0.45776,21.60252 -1.78805,39.12864 -2.64431,23.7953 -9.2202,46.95637 -20.58853,68.08472 -7.03459,13.07398 -8.91372,14.60602 -17.74809,26.16163 -3.36492,3.43245 -6.46917,7.14149 -10.09477,10.29735 -3.38784,2.94891 -6.98879,5.70409 -10.87516,7.9557 -14.87135,8.61586 -26.05466,17.80111 -42.77349,17.67719 -11.18629,-0.0829 -14.80495,-2.84696 -24.95881,-7.15683 -4.0001,-2.73038 -8.20162,-5.18684 -12.0003,-8.19113 -18.64356,-14.74477 -32.78512,-34.41861 -46.1244,-53.81968 -5.20489,-7.86567 -9.87422,-16.04065 -14.00215,-24.51392 0,0 21.35795,-11.98487 21.35795,-11.98487 l 0,0 c 3.18282,8.76246 7.16761,17.18417 11.97961,25.18366 12.41881,19.7177 26.19183,39.26072 45.05236,53.43084 3.79356,2.85014 7.9952,5.11218 11.9928,7.66827 10.07766,3.81431 13.63499,6.34228 24.53441,6.00402 4.01252,-0.12453 8.76555,-4.62228 11.86414,-2.06992 2.40456,1.98067 -10.12081,7.16995 -7.31434,5.81766 8.92173,-4.29889 14.75297,-11.11961 21.6909,-17.86782 3.21967,-4.02937 6.68092,-7.87704 9.659,-12.08811 17.04684,-24.10463 26.41865,-52.4319 30.20196,-81.52276 1.41233,-17.04765 2.20737,-21.76848 1.99848,-38.95797 -0.30148,-24.80906 -3.66506,-49.49454 -8.72406,-73.75027 -2.77026,-12.01784 -5.51503,-24.05835 -9.40596,-35.77954 -0.68907,-2.07576 -1.45289,-4.12998 -2.32544,-6.13553 -0.40571,-0.9325 -2.2962,-2.02435 -1.49978,-2.65671 6.4254,-5.10174 14.00327,-8.55351 21.0049,-12.83027 -2.19234,3.17413 -2.09267,6.93626 -2.62204,10.70198 -1.12163,7.97866 -2.35524,15.94456 -3.99462,23.8361 -3.45021,15.50354 -6.9366,31.4634 -15.45906,45.09831 -8.46222,10.38023 -2.98961,4.47299 -27.02257,17.63597 -1.55657,0.85254 -4.85484,1.08413 -6.57782,0.9913 -2.38794,-0.12866 -4.20098,-0.74792 -6.49673,-1.36317 -6.5818,-2.5469 -12.10752,-6.24903 -14.01731,-13.45448 -1.45624,-9.54748 0.11242,-18.9704 2.30496,-28.31163 1.16777,-4.56867 2.48398,-9.05126 3.86571,-13.55788 0.11628,-0.37928 1.47036,-4.94194 1.52033,-4.9703 7.61587,-4.3221 15.66406,-7.83361 23.49609,-11.75042 -0.10256,1.12247 0.0316,0.41814 -0.68131,1.97598 -2.09249,4.57235 -4.91261,8.75876 -7.21431,13.22879 -4.77119,8.87121 -9.43249,18.13273 -16.71499,25.24621 -7.99434,4.58727 -15.85566,9.41457 -23.98303,13.76181 -3.2997,1.76497 -7.12055,-1.2981 -9.27187,-3.41267 -2.69809,-3.39909 -4.73402,-7.28233 -5.95599,-11.45594 -1.1262,-5.54247 -1.61816,-11.20877 -1.01786,-16.85727 1.099,-10.15546 5.30663,-35.25237 25.18536,-22.95172 3.69073,4.10803 2.97397,10.26464 3.23887,15.3856 -0.50672,12.03543 -1.66668,24.00454 -5.38397,35.54442 -3.41212,9.17259 -7.85831,18.17312 -15.68193,24.39614 -8.08367,4.75244 -16.0906,9.63789 -24.25101,14.25732 -4.80163,2.71809 -10.52328,2.84177 -15.30823,0.17545 -0.78754,-0.65067 -1.65915,-1.21126 -2.36262,-1.95202 -5.23787,-5.51551 -5.52429,-13.6545 -5.05874,-20.78608 0.59296,-4.85745 0.76142,-7.45367 1.96548,-12.25499 2.2429,-8.94381 6.12613,-17.40778 10.45794,-25.50545 1.64678,-2.75681 6.64149,-11.79597 9.32643,-13.58545 7.82757,-5.21697 15.96821,-9.96027 24.16609,-14.57355 2.49625,-1.40475 3.34221,-0.65945 5.71777,0.0558 0.62792,0.65682 1.41699,1.19082 1.88377,1.97044 3.60834,6.02677 -1.46579,15.72395 -3.44156,21.42294 -1.99786,3.73405 -3.95094,7.58115 -6.28379,11.12479 -4.89035,7.4285 -11.16291,13.699 -17.63519,19.73692 -9.7145,8.76028 0.1301,-0.0861 -9.32568,8.32051 -0.94271,0.83811 -6.95376,6.32844 -8.23839,7.14209 -8.10841,5.13566 -16.41601,9.95066 -24.67977,14.83242 -1.14503,0.67642 -2.36051,1.22578 -3.54077,1.83868 -7.06513,2.43699 -10.96203,2.09417 -13.60591,-5.60216 -2.14081,-11.58975 -0.0855,-23.3794 0.99897,-34.98756 2.63063,-19.9977 6.54983,-39.75357 10.33468,-59.55875 2.88132,-16.01745 5.86599,-32.12022 6.55167,-48.41218 0.39756,-9.64667 -0.33117,-1.91992 21.50155,-13.77021 0.70031,-0.38011 -1.29352,0.97553 -1.74945,1.62901 -0.87483,1.25389 -1.53707,2.64721 -2.19646,4.02662 -2.37772,4.97407 -4.01755,9.63457 -6.00646,14.82799 -10.31662,26.56914 -20.18768,53.40318 -33.6518,78.59796 -6.85685,12.43345 -13.69884,24.79587 -21.97144,36.36789 -1.23006,1.72065 -11.02127,14.69251 -13.40817,16.46602 -8.38599,6.23093 -17.5546,11.33284 -26.3319,16.99926 -4.1786,1.83627 -6.15401,3.51049 -10.79051,2.78198 -7.71684,-1.2125 -9.63584,-9.82337 -10.45613,-16.193 -0.0248,-6.2787 -0.28759,-8.85233 0.77485,-15.20052 1.87897,-11.22705 6.35525,-21.95807 12.80702,-31.29973 1.61671,-1.992 3.10351,-4.09686 4.85011,-5.976 8.39644,-9.03365 20.34165,-13.98576 30.89895,-19.72106 4.53804,-2.46532 9.95931,-2.81757 14.96876,-2.41959 6.70241,1.49641 11.85078,3.60839 15.61651,9.64281 0,0 -22.18122,12.38658 -22.18122,12.38658 z"
       id="path3434"
       style="fill:#000000;fill-opacity:1;fill-rule:nonzero;stroke:none;stroke-width:1px;stroke-linecap:butt;stroke-linejoin:miter;stroke-opacity:1" />
  </g>
</svg>
