<?xml version="1.0" encoding="UTF-8" standalone="no"?>
<svg
   xmlns:dc="http://purl.org/dc/elements/1.1/"
   xmlns:cc="http://creativecommons.org/ns#"
   xmlns:rdf="http://www.w3.org/1999/02/22-rdf-syntax-ns#"
   xmlns:svg="http://www.w3.org/2000/svg"
   xmlns="http://www.w3.org/2000/svg"
   version="1.1"
   id="svg2"
   viewBox="0 0 1440 900.00002"
   height="900"
   width="1440">
  <defs
     id="defs4" />
  <metadata
     id="metadata7">
    <rdf:RDF>
      <cc:Work
         rdf:about="">
        <dc:format>image/svg+xml</dc:format>
        <dc:type
           rdf:resource="http://purl.org/dc/dcmitype/StillImage" />
        <dc:title></dc:title>
      </cc:Work>
    </rdf:RDF>
  </metadata>
  <g
     transform="translate(0,-152.36202)"
     id="layer1">
    <path
       d="m 204.77486,379.57931 c -2.95624,4.37335 -4.10517,9.80578 -5.43234,14.83566 -2.09077,7.9239 -2.04328,8.03686 -3.99884,16.49548 -5.40798,26.42639 -10.03602,53.00894 -14.65255,79.58334 -5.54748,31.28697 -9.01347,62.65433 -10.66289,94.37081 -0.50079,11.89518 -0.25224,23.84051 1.43569,35.64019 0.68456,4.78558 1.51961,9.30754 3.29579,13.80395 0.53956,1.36591 1.35044,2.60838 2.02566,3.91256 1.2791,1.10472 2.31846,2.78862 4.36137,1.9502 0.89175,-0.36597 3.06512,-2.29542 2.19291,-1.88507 -6.14804,2.89248 -11.62521,7.31711 -18.10215,9.36994 -1.84872,0.58594 2.3778,-3.07209 3.41062,-4.71355 1.34235,-2.13339 2.46895,-4.39516 3.70342,-6.59274 9.90001,-20.37626 17.00763,-41.95496 23.95042,-63.47327 5.1257,-16.28294 9.50368,-32.79287 13.298,-49.43408 2.7156,-12.82813 -0.0768,-8.60224 23.98939,-16.0358 0.98828,-0.30526 -0.26496,2.05197 -0.36747,3.08124 -0.15983,1.6047 -0.27965,3.21313 -0.41947,4.8197 -1.41385,18.02478 -0.86443,36.11346 0.21352,54.13614 1.21817,13.02018 3.18776,26.14561 7.55598,38.53235 2.3043,6.5342 3.41326,8.09479 6.60278,14.08867 6.30082,9.42355 15.11214,17.97002 26.56233,20.47787 2.22786,0.48795 4.53062,0.52837 6.79594,0.79256 -2.85192,4.40056 19.01506,-6.43262 14.37688,-4.50652 -4.17668,1.73444 -8.63274,8.17605 -12.35468,5.60699 -3.20788,-2.21425 5.34447,-5.70974 7.58897,-8.89653 7.18316,-10.19877 8.59732,-15.36428 13.58019,-27.06 9.8751,-28.94655 13.54875,-59.77127 10.30009,-90.22407 -0.59185,-5.54802 -1.71614,-11.02625 -2.57421,-16.53937 -2.8524,-12.08317 -3.27122,-15.69465 -7.45733,-26.91524 -1.17163,-3.14048 -2.67191,-6.14834 -4.00787,-9.22252 0,0 19.97105,-11.13218 19.97105,-11.13218 l 0,0 c 4.28164,12.2337 8.09835,24.59878 10.05701,37.46392 0.79652,5.61512 1.83965,11.20075 2.38955,16.84537 2.97913,30.58065 -0.38348,61.49813 -9.42542,90.82755 -4.43102,11.61334 -5.71213,16.80482 -12.16176,27.12675 -9.26467,14.8271 -15.34518,15.60965 -34.27354,26.64914 -2.41848,1.41051 -5.10107,2.40489 -7.82481,3.05285 -2.47037,0.58769 -5.06205,0.40998 -7.59307,0.61498 -2.36604,-0.38734 -4.78171,-0.54357 -7.09811,-1.16201 -11.82119,-3.15608 -20.91246,-12.08206 -27.31972,-22.10154 -1.17426,-2.30779 -2.47457,-4.55566 -3.52277,-6.92338 -6.53027,-14.75098 -8.6141,-31.07847 -10.33382,-46.95552 -1.24383,-17.83664 -1.99946,-35.70588 -1.82603,-53.59057 -0.0119,-1.54061 -0.0159,-3.08131 -0.0358,-4.62185 -0.0121,-0.939 -0.84297,-2.29749 -0.0604,-2.81659 30.94858,-20.52929 24.08523,-18.20201 20.60564,-5.88658 -4.98555,16.81871 -9.75053,33.70147 -15.07378,50.41845 -6.88205,21.29854 -13.7783,42.65215 -22.5591,63.25972 -0.0869,0.18004 -5.05668,10.84887 -6.02386,11.58655 -7.57874,5.78042 -15.81048,10.67242 -24.02719,15.50317 -0.9655,0.56764 -2.19942,0.70387 -3.31135,0.56966 -2.66326,-0.32146 -3.53171,-2.2293 -5.02302,-4.07951 -0.59472,-1.49459 -1.31608,-2.94482 -1.78416,-4.48377 -1.52018,-4.99805 -2.07157,-9.43056 -2.54982,-14.67964 -1.10602,-12.1393 -1.06398,-24.36056 -0.41226,-36.52287 1.96301,-31.72362 5.48598,-63.30815 10.72821,-94.66707 4.30202,-26.29741 8.65875,-52.58545 12.99466,-78.87736 1.99069,-10.5032 3.76715,-21.12765 6.93202,-31.35353 0,0 23.3515,-10.06303 23.3515,-10.06303 z"
       id="path3465"
       style="fill:#000000;fill-opacity:1;fill-rule:nonzero;stroke:none;stroke-width:1px;stroke-linecap:butt;stroke-linejoin:miter;stroke-opacity:1" />
    <path
       d="m 343.76028,631.45052 c -0.6397,3.96786 -0.47412,8.02944 2.19207,11.19229 5.2295,4.5686 12.25954,3.63017 18.61347,2.69241 1.80424,-0.5284 3.65347,-0.92222 5.41273,-1.58519 2.00061,-0.75392 7.65358,-3.78476 5.83862,-2.65482 -4.46121,2.7774 -8.8427,5.88374 -13.80473,7.61424 -2.75795,0.96183 4.76846,-3.38393 7.01775,-5.2473 6.67776,-5.532 8.17465,-7.59824 14.12597,-14.04371 12.3068,-14.45027 22.99102,-30.14271 31.12103,-47.29506 2.42901,-7.02893 7.79227,-16.56519 3.59839,-24.05726 -0.53693,-0.95918 -1.40766,-1.68873 -2.11149,-2.5331 -1.02638,-0.52899 -1.97348,-1.25411 -3.07914,-1.58697 -8.77317,-2.64124 -18.6507,2.95128 -25.79327,7.27024 4.79834,-2.50416 9.1903,-6.02731 14.39503,-7.51248 2.40828,-0.6872 -3.84922,3.21749 -5.60429,5.00405 -5.34643,5.44233 -9.64351,11.87744 -12.6755,18.87167 -0.99613,2.29787 -1.71908,4.70474 -2.57862,7.05711 -2.64746,9.33629 -3.04974,19.14851 -1.05178,28.66107 0.99882,4.75552 2.09583,7.20243 3.76847,11.68143 3.40298,6.89989 8.34098,13.5742 16.59332,14.44601 1.43219,0.1513 2.8799,-0.0488 4.31984,-0.0732 1.50598,-0.40263 3.04423,-0.69967 4.51793,-1.20789 1.61667,-0.55753 3.19271,-1.23701 4.73198,-1.98206 1.60724,-0.77795 6.24311,-3.4691 4.6943,-2.58053 -30.95405,17.75875 -13.52369,7.55087 -6.12252,2.52533 6.67997,-4.96842 13.28664,-10.12187 19.19243,-16.0125 4.06079,-4.05036 5.80763,-6.34434 9.51899,-10.7759 7.17556,-9.33393 13.84757,-19.22352 18.47022,-30.09375 1.53044,-5.03743 -0.23009,-0.15932 0.70103,-0.55447 7.3085,-3.10155 14.06557,-7.46195 21.49749,-10.25488 1.12042,-0.42106 -1.42655,1.92623 -2.05153,2.94704 -1.78034,2.90793 -3.87754,7.16859 -5.38914,10.12162 -4.47882,9.93863 -8.92875,20.42763 -10.00427,31.4089 -0.15454,1.57794 -0.062,3.17037 -0.093,4.75556 0.26617,3.29038 0.93721,9.20358 5.72831,8.53617 2.08133,-0.28994 4.47993,-1.93007 6.16561,-2.88934 -5.5798,2.99381 -10.81627,6.74232 -16.7394,8.98144 -2.01102,0.76022 3.22062,-2.85804 4.6908,-4.42671 1.74172,-1.85839 3.38243,-3.8149 4.92958,-5.83815 6.20823,-8.11865 10.53783,-16.93046 14.8901,-26.12425 11.0756,-26.32453 13.40921,-54.99182 15.60463,-83.15186 0.67237,-11.08781 1.14902,-22.19662 1.12822,-33.30735 -0.004,-1.95819 -0.0311,-3.91717 -0.11969,-5.87336 -0.0405,-0.89507 -1.07928,-2.29522 -0.26758,-2.67461 7.01902,-3.28072 14.6702,-4.99045 22.00529,-7.48567 -2.56952,23.15473 -5.75148,46.22986 -9.50015,69.22156 -3.70675,20.56894 -6.74113,41.25061 -8.07499,62.11324 0,0 -20.46493,10.21973 -20.46493,10.21973 l 0,0 c 2.05869,-21.06326 5.36214,-41.96345 9.06612,-62.79724 3.52377,-22.38412 6.73865,-44.93037 6.93822,-67.63287 7.42662,-4.94775 14.43432,-10.59093 22.27988,-14.84324 0.91042,-0.49345 -0.41332,2.03164 -0.53885,3.05956 -0.2535,2.07592 -0.42343,4.16143 -0.59743,6.24553 -0.94897,11.36582 -1.59853,22.75605 -2.56327,34.12075 -2.35349,28.11884 -4.14099,56.77984 -14.33133,83.39209 -4.0136,9.1702 -8.00782,17.99992 -13.74839,26.24919 -1.08802,1.5635 -6.79917,9.19306 -8.79379,10.54968 -8.0833,5.4978 -16.67793,10.20337 -25.01689,15.30506 -2.84192,1.10026 -4.45316,2.23389 -7.56103,1.6585 -5.50289,-1.01881 -6.50976,-7.06046 -6.81036,-11.61642 0.0489,-1.72239 -0.0318,-3.45335 0.14674,-5.16717 1.16162,-11.15317 5.69249,-21.78467 9.80405,-32.08106 1.54846,-3.32311 3.08052,-6.65386 4.63178,-9.97567 0.47945,-1.02666 0.50066,-2.46205 1.45569,-3.07183 7.56536,-4.83045 15.48539,-9.1356 23.61673,-12.93681 0.51893,-0.24258 0.71026,0.99981 0.69341,1.5724 -0.0208,0.70455 -0.53158,1.30566 -0.79737,1.95849 -5.28654,11.01343 -11.93894,21.31868 -19.21921,31.11394 -2.96545,3.69464 -5.92078,7.54838 -9.2043,10.97865 -5.75575,6.01302 -12.33797,11.16849 -18.87686,16.28169 -11.50264,7.95701 -22.52742,14.26178 -35.14691,21.41453 -2.83059,1.60438 -6.78514,3.33884 -9.9561,4.14269 -1.61749,0.41004 -3.29599,0.52352 -4.94398,0.78528 -1.56404,-0.1308 -3.15408,-0.0797 -4.6921,-0.3924 -8.7103,-1.77109 -13.88246,-9.06823 -17.40751,-16.63497 -1.64512,-4.66917 -2.7413,-7.30072 -3.75597,-12.22954 -2.02761,-9.84928 -1.77025,-20.03657 0.69507,-29.77358 3.63111,-10.65249 7.04494,-18.49621 14.77164,-26.96707 9.10537,-9.9823 18.53745,-13.33753 31.55595,-21.41336 8.08686,-4.40007 18.57148,-9.70217 27.9599,-5.69735 1.31747,0.56199 2.40342,1.55877 3.60513,2.33815 0.82407,1.09049 1.83191,2.06387 2.47221,3.27146 4.46532,8.42144 -0.69942,18.35783 -3.74177,26.23307 -8.3492,17.38294 -19.2235,33.28521 -31.46512,48.17394 -2.24228,2.55394 -4.38416,5.19964 -6.72683,7.66181 -12.24406,12.86868 -23.76545,18.51808 -40.41208,27.67779 -1.95851,1.07766 -4.09261,1.81761 -6.215,2.51945 -1.88347,0.62283 -3.84887,0.96325 -5.7733,1.44487 -7.37004,0.82375 -15.04439,1.26899 -20.72544,-4.33861 -3.04353,-4.02098 -3.45532,-8.00143 -3.39675,-12.9373 0,0 22.78782,-11.14084 22.78782,-11.14084 z"
       id="path3467"
       style="fill:#000000;fill-opacity:1;fill-rule:nonzero;stroke:none;stroke-width:1px;stroke-linecap:butt;stroke-linejoin:miter;stroke-opacity:1" />
    <path
       d="m 511.66829,634.98781 c 2.25002,-10.11624 5.77713,-19.85679 9.57361,-29.47711 4.21747,-9.94845 8.77772,-20.20565 17.51917,-26.95632 8.09552,-4.27774 15.8851,-9.19288 24.28656,-12.83321 0.99237,-0.42999 2.12539,0.49259 3.0968,0.96805 5.07593,2.48443 6.64165,8.16661 8.30907,13.07727 2.8654,10.26489 2.52544,20.96365 1.53025,31.4642 -0.77351,6.69227 -1.6576,13.37231 -2.13132,20.09469 -0.53232,9.98002 1.99062,4.05168 -22.40559,11.80307 -0.94501,0.30026 0.72473,-1.84699 1.03658,-2.78823 1.06524,-3.21517 1.76921,-6.07166 2.6571,-9.38234 3.21147,-13.15587 7.36487,-25.98143 12.74353,-38.40495 1.67227,-3.08629 2.39685,-4.85652 4.59716,-7.46466 0.63421,-0.75176 1.26707,-1.5648 2.12317,-2.04901 5.07515,-2.87052 17.86143,-17.81839 26.25292,-11.29683 0.84449,0.6563 1.46587,1.55782 2.1988,2.33674 4.32699,7.30524 6.38209,15.69122 8.4824,23.84812 1.83954,8.69058 4.34332,15.45369 10.23769,22.16115 4.17959,4.26444 9.64739,6.99549 15.77029,5.90871 1.24912,-0.22172 2.42486,-0.74692 3.63729,-1.12038 12.67174,-6.80735 -8.33708,5.24564 -12.82348,7.23586 -1.72858,0.76682 2.92178,-2.40941 4.26747,-3.73799 5.08061,-5.01598 8.63715,-10.77701 12.276,-16.85884 5.62628,-10.85331 10.13645,-23.02246 9.00752,-35.47363 -0.17073,-1.883 -0.67074,-3.72148 -1.0061,-5.58222 -1.3372,-3.27701 -3.13116,-8.11779 -7.32295,-8.79347 -3.2722,-0.52746 -7.43058,3.11048 -6.25323,2.52715 5.87742,-2.91202 11.61573,-6.09679 17.4236,-9.14518 -6.75261,8.13414 -10.27454,18.63439 -10.83447,29.15727 -0.10986,2.06457 0.063,4.1345 0.0945,6.20175 1.33482,10.68572 5.12975,16.53302 14.13929,22.11906 3.54476,1.99734 7.34992,3.45091 11.11242,4.96962 0,0 -20.39924,13.64517 -20.39924,13.64517 l 0,0 c -3.8769,-1.60107 -7.80949,-3.12507 -11.38327,-5.35735 -9.41568,-6.49302 -13.44556,-12.898 -14.77245,-24.46489 -0.0585,-2.17205 -0.26239,-4.34505 -0.17565,-6.51615 0.43075,-10.78165 3.81441,-21.49169 9.62285,-30.54849 8.14887,-5.1318 16.13904,-10.52471 24.44661,-15.39541 2.36656,-1.38751 5.20076,-1.6531 7.74901,-0.60034 4.46071,1.84286 6.32488,6.80246 7.80933,10.91248 0.32693,2.00659 0.81442,3.99354 0.98078,6.01977 1.05174,12.81015 -3.15705,25.3638 -8.67212,36.72056 -2.69006,4.85239 -4.19906,7.95906 -7.46664,12.40014 -9.14967,12.43561 -22.98295,20.14805 -37.38695,25.48656 -1.35512,0.23264 -2.69304,0.61306 -4.06536,0.69791 -6.69287,0.41385 -12.42677,-3.01305 -16.87682,-7.69759 -5.92644,-7.06917 -8.74182,-14.22744 -10.67714,-23.21905 -1.88482,-7.69905 -3.81156,-15.6842 -8.17884,-22.40129 -0.5876,-0.46743 -1.08271,-1.0841 -1.7628,-1.40229 -0.51618,-0.2415 -1.13063,-0.14397 -1.69595,-0.21596 6.44753,-3.92203 12.89506,-7.84406 19.34259,-11.76608 0.86971,-0.52521 -1.80395,0.97104 -2.57063,1.63771 -2.57642,2.24033 -3.48324,4.19818 -5.33995,7.11406 -5.79871,12.12502 -10.18393,24.73457 -12.85158,37.93381 -1.91552,9.42969 -0.23808,1.37835 -1.96123,9.19045 -0.2067,0.93709 0.21502,2.30279 -0.59545,2.81659 -28.64023,18.15641 -24.37301,20.51983 -23.05615,10.02995 0.89936,-6.83811 1.93217,-13.65756 2.90684,-20.48538 1.14321,-10.13182 1.73346,-20.51655 -1.20851,-30.41985 -1.168,-3.22066 -2.16505,-7.23874 -5.00847,-9.50348 -0.6758,-0.53827 -1.48609,-0.93161 -2.32107,-1.15349 -0.77089,-0.20484 -3.04169,0.36256 -2.39087,-0.0986 5.89488,-4.17686 12.32665,-7.53904 18.48997,-11.30856 -1.03817,0.59029 -2.1508,1.06552 -3.1145,1.77086 -7.94016,5.81145 -11.88312,15.617 -15.86522,24.2058 -3.63745,9.16251 -7.0359,18.50142 -8.35935,28.32322 0,0 -22.78782,11.14085 -22.78782,11.14085 z"
       id="path3469"
       style="fill:#000000;fill-opacity:1;fill-rule:nonzero;stroke:none;stroke-width:1px;stroke-linecap:butt;stroke-linejoin:miter;stroke-opacity:1" />
    <path
       d="m 706.83162,560.56667 c -2.47963,-0.0581 -4.96777,0.15021 -7.29421,1.10102 -1.10419,0.45128 -4.2027,2.25784 -3.16809,1.66414 19.9286,-11.43589 22.85736,-13.76188 14.20202,-7.47342 -3.35945,3.01981 -7.45886,7.06014 -6.03012,12.1088 0.86929,3.07174 2.83732,4.74246 4.86766,7.1112 9.81541,9.16886 21.41897,16.18598 31.0934,25.52609 2.07537,2.00366 3.95111,4.20429 5.92666,6.30644 6.64413,8.05229 10.95588,17.50966 9.10589,28.15339 -1.13063,6.505 -2.73645,8.26401 -5.89481,13.98991 -1.64812,2.08096 -3.15256,4.28427 -4.94434,6.24289 -3.05949,3.34437 -7.8121,7.44284 -11.74173,9.79495 -24.98116,14.95265 -16.97865,12.15026 -31.40945,16.40604 0,0 19.14055,-14.83874 19.14055,-14.83874 l 0,0 c 9.16329,-3.22443 9.66954,-3.77066 -9.72109,7.08406 -2.17236,1.21607 4.2492,-2.61172 6.2274,-4.12324 5.69156,-4.34887 6.27319,-5.59261 10.9012,-10.98031 3.21323,-5.23631 4.86186,-6.92605 6.22058,-12.96694 2.24848,-9.99682 -1.65708,-18.9429 -7.82002,-26.64407 -1.89528,-2.05866 -3.67763,-4.22734 -5.68585,-6.17599 -9.82205,-9.53066 -21.8807,-16.24642 -32.1469,-25.22887 -2.68221,-2.93019 -4.64978,-4.41309 -5.97495,-8.19515 -2.0161,-5.75399 1.1592,-10.58688 5.11135,-14.46749 10.23117,-8.49816 4.36002,-3.93231 27.90866,-16.96738 3.61778,-2.00258 7.96161,-2.31423 11.9838,-1.96103 0,0 -20.85761,14.5337 -20.85761,14.5337 z"
       id="path3471"
       style="fill:#000000;fill-opacity:1;fill-rule:nonzero;stroke:none;stroke-width:1px;stroke-linecap:butt;stroke-linejoin:miter;stroke-opacity:1" />
    <path
       d="m 802.23541,587.71994 c -8.6453,7.20481 -13.63353,17.4434 -17.44978,27.79795 -2.08567,7.67228 -4.64713,16.98128 -0.59394,24.52806 0.55306,1.02977 1.34739,1.91042 2.02109,2.86563 0.88301,0.62814 1.66981,1.42032 2.64904,1.88443 7.18776,3.40665 15.30922,-0.99235 21.47932,-4.39762 -5.19619,2.73253 -9.99682,6.4089 -15.58857,8.19759 -2.22464,0.71162 3.48193,-3.12366 5.0728,-4.8338 1.80322,-1.93841 3.49656,-3.98249 5.09318,-6.09433 6.07061,-8.02953 10.6641,-16.81844 15.24595,-25.73746 11.73938,-23.29311 18.46904,-48.52525 24.31095,-73.81092 3.58863,-17.08327 5.96787,-34.43402 6.61194,-51.88363 -0.69907,-9.90592 -8.06665,-1.54699 21.4581,-12.59234 0.91522,-0.34239 -0.98135,1.69927 -1.33253,2.61115 -1.09244,2.83661 -1.93682,6.90821 -2.61461,9.75316 -3.37696,15.01401 -5.27575,30.30123 -6.54511,45.6213 -1.10548,15.45649 -1.21723,30.96097 -1.27164,46.4498 -0.44497,12.848 0.92097,25.6052 2.97574,38.26021 1.39478,5.41772 1.99295,12.11647 6.40133,16.07262 2.72684,1.47158 5.99722,1.50975 8.98419,0.98624 2.15343,-0.26976 4.23641,-0.86854 6.21014,-1.7713 0.72861,-0.33326 2.82877,-1.5051 2.13419,-1.10573 -20.86743,11.99837 -24.92949,15.02549 -16.67387,9.12849 6.49919,-5.86352 10.49487,-13.71201 14.33423,-21.43307 4.85413,-9.6828 8.97344,-19.68616 11.88556,-30.11977 0.24344,-0.60238 1.86533,-7.97739 0.87088,-8.28322 -0.0515,-0.0158 -0.61339,0.88398 -1.19643,1.79259 33.19299,-19.76855 20.54398,-13.76857 14.73286,-4.98092 -3.06591,4.63631 -5.19411,9.55961 -7.24516,14.69897 -3.80934,10.70532 -4.85045,21.93576 -4.2715,33.20682 0.59918,6.75263 2.32541,13.30606 7.04739,18.31961 3.19766,2.70088 6.68843,2.88519 10.27668,0.92127 -6.67155,3.76649 -13.3198,7.57456 -20.01464,11.29948 -0.58024,0.32283 1.13899,-0.68793 1.66669,-1.09094 0.59149,-0.45173 1.16678,-0.9311 1.68297,-1.46725 2.06178,-2.1415 3.10762,-4.70212 4.21866,-7.40446 2.58792,-8.32345 2.82091,-17.11972 3.11301,-25.76259 0.2048,-8.23903 0.10263,-16.47873 -0.0773,-24.71669 -0.10657,-2.97309 -0.15753,-5.94817 -0.35555,-8.91718 -0.32332,-1.41922 0.45204,-2.70739 0.52075,-4.05586 21.65722,-10.61924 21.86387,-18.38959 24.07246,-7.0548 0.59152,3.03576 1.10727,6.08244 1.65038,9.12746 1.75998,9.43884 3.82301,18.79864 6.30592,28.07329 2.14523,6.81429 4.02592,15.0257 9.64745,20.00468 0.77302,0.68467 1.72463,1.13622 2.58694,1.70433 0.90298,0.16833 1.7904,0.50743 2.70893,0.50499 3.7488,-0.01 6.29201,-2.40724 6.16761,-2.34074 -5.75507,3.07648 -11.22012,6.74295 -17.21156,9.32911 -1.66582,0.71904 2.78109,-2.34081 4.04263,-3.64485 1.36164,-1.40751 2.53996,-2.98148 3.80994,-4.47222 6.81012,-8.87881 11.4241,-19.09687 15.09832,-29.59704 0.29973,-0.94986 0.61024,-1.89639 0.89918,-2.84959 0.26297,-0.86754 0.73053,-2.52327 0.96159,-3.49839 0.0619,-0.26127 -0.0853,-0.67294 0.1562,-0.79023 23.54794,-11.43482 22.74921,-18.76268 22.98666,-8.36643 -0.47428,6.39058 -0.024,12.57861 2.11869,18.62687 3.82738,6.34851 7.33224,5.7238 12.98784,2.01583 -29.65478,17.6479 -16.96497,10.49751 -10.50367,1.406 3.41227,-4.80131 6.05517,-9.97531 8.59377,-15.26688 1.5025,-3.3689 2.7998,-6.82311 3.9468,-10.3274 0.1815,-0.55473 0.393,-1.10224 0.5215,-1.67161 0.061,-0.27122 -0.2111,-0.72192 0.044,-0.83299 7.6434,-3.3305 15.4786,-6.20202 23.218,-9.30303 0.2434,21.52369 3.0766,42.91637 5.2998,64.29817 2.4135,24.7368 4.4868,49.60254 3.5409,74.4837 -0.664,17.46581 -1.527,20.63656 -3.8892,37.83047 -5.2563,25.98435 -12.7763,52.97487 -30.1097,73.77817 -2.5205,3.02503 -5.5128,5.62353 -8.26909,8.4353 -14.19737,9.126 -29.11169,22.61912 -46.97283,19.79546 -11.24001,-1.77693 -17.90685,-8.04149 -26.11151,-15.14146 -13.56729,-13.96475 -23.43694,-30.88195 -34.70148,-46.63871 -4.06052,-5.08321 -2.01149,-2.88394 -6.00727,-6.72533 0,0 21.04671,-12.78828 21.04671,-12.78828 l 0,0 c 3.67786,4.43007 1.8036,1.96682 5.51824,7.46814 10.07714,16.2565 19.65461,33.13769 33.431,46.63514 8.15109,6.65476 14.53481,12.38948 25.539,13.56071 2.95472,0.31449 9.51223,-3.25014 8.90771,-0.34087 -0.90999,4.37934 -8.59382,4.26346 -10.55783,8.2821 -1.57777,3.22833 6.15397,-3.71143 9.23096,-5.56714 8.45357,-7.9581 10.46856,-8.98768 17.14786,-19.07634 12.46733,-18.83127 19.09943,-40.72557 23.55363,-62.64827 2.4861,-16.98803 3.4348,-20.37174 4.1229,-37.64127 0.9843,-24.70221 -1.2417,-49.38526 -4.1336,-73.8871 -2.764,-20.78806 -5.8641,-41.5258 -8.9279,-62.27012 7.5751,-4.10785 15.2118,-8.10409 22.7252,-12.32355 0.2292,-0.12871 -0.6131,-0.19159 -0.7885,0.004 -0.429,0.47899 -0.5439,1.16579 -0.7911,1.75941 -1.5086,3.62329 -2.8583,7.31579 -4.5619,10.85734 -3.3339,7.09796 -6.9204,14.03064 -11.6835,20.29493 -1.0345,1.36047 -1.8239,3.01162 -3.2319,3.9804 -7.8846,5.42508 -16.29603,10.04154 -24.44405,15.06231 -1.12494,0.45401 -2.19459,1.0815 -3.37481,1.36202 -5.39695,1.28279 -9.80788,-2.27895 -12.07208,-6.83196 -2.16128,-6.20394 -2.85066,-12.55934 -2.76219,-19.11924 -0.69654,-10.17322 -0.6351,-1.95314 22.49099,-13.97391 0.25705,-0.13361 -0.28194,0.5082 -0.38711,0.77814 -0.87113,2.23608 -1.4531,4.58935 -2.4263,6.78905 -4.12723,10.61949 -8.66247,21.15271 -15.24513,30.52299 -9.86501,13.00483 -12.9491,12.6917 -32.10732,23.53279 -3.45435,1.95472 -7.10677,1.47679 -10.47718,-0.19764 -0.9299,-0.7555 -1.95009,-1.41178 -2.78969,-2.26651 -5.52717,-5.62684 -7.53783,-13.86409 -9.81323,-21.1281 -2.55805,-9.26674 -4.69762,-18.62129 -6.78255,-28.00269 -0.66502,-2.96693 -1.29774,-5.92567 -2.06033,-8.86794 -0.14524,-0.56039 -0.24721,-1.13237 -0.41538,-1.68632 -0.1066,-0.35117 -0.72588,-0.84116 -0.40708,-1.02296 7.39718,-4.21831 15.14094,-7.79752 22.71141,-11.69629 -0.95615,-0.45195 -1.66397,1.13275 -1.53653,2.00183 -0.16629,3.07992 -0.19961,6.16392 -0.28236,9.24675 -0.12914,8.32913 -0.17462,16.65866 -0.28928,24.98781 -0.19183,8.79944 -0.41071,17.68041 -2.42958,26.28964 -4.80681,15.73458 -12.7075,14.79343 -29.83356,24.65193 -4.54103,0.96966 -8.58535,-0.0882 -11.86922,-3.49074 -4.71375,-5.7583 -6.6402,-12.75132 -7.21916,-20.11687 -0.5249,-11.57301 0.47989,-23.11042 4.03344,-34.20298 1.89412,-5.18885 3.85602,-10.23457 6.61588,-15.04028 0.0981,-0.17074 3.95511,-6.28923 4.17137,-6.43255 7.59467,-5.03325 15.66175,-9.31454 23.49263,-13.97181 0.67713,0.0664 1.40724,-0.0716 2.03141,0.19915 4.07427,1.76762 1.11951,8.63497 0.51802,11.3663 -3.1654,10.51427 -7.26764,20.68981 -11.97548,30.60969 -3.66776,7.84658 -7.43405,15.6953 -13.30211,22.18207 -9.71612,8.70275 -21.91111,16.2009 -34.99353,18.00877 -3.70111,0.0858 -7.35428,-0.29223 -10.25421,-2.84335 -4.28781,-4.90235 -5.16614,-11.67598 -6.35737,-17.87226 -1.73121,-12.88715 -2.97398,-25.86097 -2.56601,-38.88449 0.11825,-15.56704 0.24838,-31.14429 1.32988,-46.68125 1.25185,-15.27439 3.08509,-30.49681 5.80956,-45.58411 0.10919,-0.61954 2.06202,-12.38734 2.49549,-12.66677 15.03047,-9.68926 24.67598,-21.48955 23.63139,-8.5437 -2.43915,17.83789 -4.81721,35.70085 -8.75007,53.28956 -5.81524,25.2275 -12.23993,50.48763 -23.40715,73.9712 -4.31621,8.89618 -8.64771,17.70723 -14.30436,25.85607 -1.41412,2.03716 -7.17192,9.67148 -9.51727,11.28607 -8.23035,5.666 -16.99492,10.51389 -25.49237,15.77083 -7.21804,3.48077 -15.87907,7.12023 -23.57767,2.46747 -1.12422,-0.67943 -1.99769,-1.70622 -2.99653,-2.55933 -0.74496,-1.13109 -1.62603,-2.18346 -2.23488,-3.39327 -4.14312,-8.2325 -1.77342,-17.9922 0.43022,-26.37408 3.51805,-10.2816 8.06506,-20.55197 15.74685,-28.44976 0,0 23.34164,-9.45914 23.34164,-9.45914 z"
       id="path3473"
       style="fill:#000000;fill-opacity:1;fill-rule:nonzero;stroke:none;stroke-width:1px;stroke-linecap:butt;stroke-linejoin:miter;stroke-opacity:1" />
  </g>
</svg>
